<svg xmlns="http://www.w3.org/2000/svg" xmlns:xlink="http://www.w3.org/1999/xlink" fill="none" viewBox="0 0 27 36"><defs><path id="a" fill="#F5F1E3" d="M16.065 20.11H11.34c-.945 0-1.688-.774-1.688-1.758v-8.086c0-.387.304-.704.676-.704h6.412c.371 0 .675.317.675.704v8.086c0 .984-.405 1.757-1.35 1.757Z"/></defs><path fill="#F1EE8D" d="M26.629 14.063c0-7.524-5.873-13.641-13.095-13.641C6.31.422.439 6.539.439 14.062c0 .247 0 .493.033.704.372 7.664 6.345 16.77 12.218 20.566.27.176.574.246.878.246.303 0 .573-.07.843-.246C20.284 31.57 26.258 22.43 26.63 14.766v-.704Z"/><path fill="#62345B" d="M13.534.422c-.372 0-.777.035-1.148.07 6.683.598 11.948 6.434 11.948 13.57 0 .247 0 .458-.034.704-.338 7.523-6.143 16.488-11.914 20.355l.304.211c.27.176.574.246.878.246.303 0 .573-.07.843-.246C20.284 31.57 26.258 22.43 26.63 14.766c0-.246.034-.457.034-.704C26.629 6.54 20.756.422 13.533.422Z" opacity=".2"/><path fill="#62345B" d="M13.534 36c-.372 0-.777-.105-1.08-.316C6.784 32.063.405 23.027.034 14.8c0-.246-.034-.492-.034-.739C0 6.293 6.075 0 13.5 0S27 6.328 27 14.063c0 .246 0 .492-.034.738-.371 8.226-6.75 17.261-12.42 20.918-.236.175-.607.281-1.012.281Zm0-35.156C6.547.844.877 6.75.877 14.027c0 .246 0 .457.034.704.371 7.699 6.514 16.663 12.015 20.214.169.106.405.176.642.176v.422-.457c.236 0 .438-.07.607-.176 5.501-3.55 11.644-12.515 12.015-20.215 0-.246.034-.457.034-.703C26.19 6.785 20.52.844 13.534.844Z"/><path fill="#C3E8F4" d="M13.534 24.82c5.704 0 10.327-4.816 10.327-10.758 0-5.94-4.623-10.757-10.327-10.757S3.206 8.12 3.206 14.063c0 5.94 4.624 10.757 10.328 10.757Z"/><path fill="#62345B" d="M13.534 25.277c-5.94 0-10.766-5.027-10.766-11.215 0-6.187 4.826-11.214 10.766-11.214S24.3 7.875 24.3 14.063c0 6.187-4.826 11.214-10.766 11.214Zm0-21.55c-5.468 0-9.923 4.64-9.923 10.335 0 5.696 4.455 10.336 9.923 10.336 5.467 0 9.922-4.64 9.922-10.335 0-5.696-4.455-10.336-9.922-10.336Z"/><use xlink:href="#a"/><use xlink:href="#a"/><path fill="#ED9E77" d="M16.065 20.11H11.34c-.945 0-1.688-.774-1.688-1.758v-6.329h7.763v6.329c0 .984-.405 1.757-1.35 1.757Z"/><path fill="#62345B" d="M17.415 12.445H9.653c-.237 0-.405-.21-.405-.422 0-.21.202-.421.405-.421h7.762c.236 0 .405.21.405.421s-.169.422-.405.422Z"/><path fill="#62345B" d="M16.065 20.531H11.34c-1.147 0-2.092-.984-2.092-2.18v-8.085c0-.633.506-1.125 1.08-1.125h6.412c.608 0 1.08.527 1.08 1.125v8.086c.034 1.335-.675 2.18-1.755 2.18ZM10.328 9.984a.272.272 0 0 0-.27.282v8.086c0 .738.573 1.335 1.282 1.335h4.725c.81 0 .945-.808.945-1.335v-8.086c0-.141-.101-.282-.27-.282h-6.412Z"/><path fill="#62345B" d="M11.678 19.125c-.237 0-.405-.21-.405-.422v-4.57c0-.246.202-.422.405-.422.202 0 .404.21.404.422v4.57c.034.246-.168.422-.405.422Zm1.856 0c-.237 0-.405-.21-.405-.422v-4.57c0-.246.202-.422.405-.422.202 0 .405.21.405.422v4.57c.034.246-.169.422-.405.422Zm1.856 0c-.236 0-.405-.21-.405-.422v-4.57c0-.246.203-.422.405-.422s.405.21.405.422v4.57c.034.246-.169.422-.405.422Z"/><path fill="#F5F1E3" d="M16.74 9.562c-1.519-.527-2.126-.703-3.206-1.195-2.16-.984-3.207-.176-3.207 1.195h3.105c.372 0 .675.317.675.704v2.144c0 .387.304.668.642.668.371 0 .641-.316.641-.668v-2.144c0-.387.304-.704.675-.704h.675Z"/><path fill="#62345B" d="M14.783 13.5c-.574 0-1.08-.492-1.08-1.125v-2.11c0-.14-.102-.28-.27-.28h-3.105c-.237 0-.405-.212-.405-.422 0-1.266.742-2.04 1.957-2.04.54 0 1.147.141 1.856.457.81.352 1.384.563 2.295.88.27.105.54.175.878.316.202.07.303.281.27.492a.406.406 0 0 1-.405.352h-.642a.272.272 0 0 0-.27.28v2.145c-.033.563-.506 1.055-1.08 1.055ZM10.8 9.14h2.632c.608 0 1.08.528 1.08 1.126v2.144a.237.237 0 1 0 .473 0v-2.144c0-.282.101-.563.27-.739-.675-.246-1.181-.422-1.89-.738-.574-.246-1.08-.387-1.519-.387-.675 0-.945.317-1.046.739Zm6.615 9.282c-.236 0-.405-.211-.405-.422v-7.031c0-.246.202-.422.405-.422 1.519 0 2.768 1.3 2.768 2.883v2.11c.033 1.581-1.25 2.882-2.768 2.882Zm.439-6.961v6.047c.877-.211 1.518-1.02 1.518-1.969v-2.11a2.05 2.05 0 0 0-1.518-1.968Z"/></svg>