<svg xmlns="http://www.w3.org/2000/svg" fill="none" viewBox="0 0 27 36"><path fill="#C58F7E" d="M26.629 14.063c0-7.524-5.873-13.641-13.095-13.641C6.31.422.439 6.539.439 14.062c0 .247 0 .493.033.704.372 7.664 6.345 16.77 12.218 20.566.27.176.574.246.878.246.303 0 .573-.07.843-.246C20.284 31.57 26.258 22.43 26.63 14.766v-.704Z"/><path fill="#62345B" d="M13.534.422c-.372 0-.777.035-1.148.07 6.683.598 11.948 6.434 11.948 13.57 0 .247 0 .458-.034.704-.338 7.523-6.143 16.488-11.914 20.355l.304.211c.27.176.574.246.878.246.303 0 .573-.07.843-.246C20.284 31.57 26.258 22.43 26.63 14.766c0-.246.034-.457.034-.704C26.629 6.54 20.756.422 13.533.422Z" opacity=".2"/><path fill="#62345B" d="M13.534 36c-.372 0-.777-.105-1.08-.316C6.784 32.063.405 23.027.034 14.8c0-.246-.034-.492-.034-.739C0 6.293 6.075 0 13.5 0S27 6.328 27 14.063c0 .246 0 .492-.034.738-.371 8.226-6.75 17.261-12.42 20.918-.236.175-.607.281-1.012.281Zm0-35.156C6.547.844.877 6.75.877 14.027c0 .246 0 .457.034.704.371 7.699 6.514 16.663 12.015 20.214.169.106.405.176.642.176v.422-.457c.236 0 .438-.07.607-.176 5.501-3.55 11.644-12.515 12.015-20.215 0-.246.034-.457.034-.703C26.19 6.785 20.52.844 13.534.844Z"/><path fill="#F2EDAA" d="M13.534 24.82c5.704 0 10.327-4.816 10.327-10.758 0-5.94-4.623-10.757-10.327-10.757S3.206 8.12 3.206 14.063c0 5.94 4.624 10.757 10.328 10.757Z"/><path fill="#fff" d="M16.132 20.742h-5.197c-.338 0-.641-.281-.675-.633l-.945-9.914h8.437l-.945 9.914a.7.7 0 0 1-.675.633Z"/><path fill="#62345B" d="M16.133 21.164h-5.198a1.09 1.09 0 0 1-1.08-1.02l-.945-9.913c0-.141.034-.247.101-.352.068-.106.203-.14.304-.14h8.438c.134 0 .236.034.303.14.068.105.135.21.101.351l-.945 9.915a1.09 1.09 0 0 1-1.08 1.02ZM9.788 10.617l.91 9.422c0 .14.136.246.237.246h5.197c.135 0 .237-.105.237-.246l.911-9.422H9.788Z"/><path fill="#ADA2B5" d="M17.753 8.79H9.315c-.371 0-.675.315-.675.702 0 .387.304.703.675.703h8.438c.37 0 .674-.316.674-.703 0-.422-.303-.703-.674-.703Z"/><path fill="#62345B" d="M17.753 10.617H9.315c-.607 0-1.08-.527-1.08-1.125 0-.597.506-1.125 1.08-1.125h8.438c.607 0 1.08.528 1.08 1.125 0 .598-.473 1.125-1.08 1.125ZM9.315 9.211a.272.272 0 0 0-.27.281c0 .176.101.281.27.281h8.438c.134 0 .27-.105.27-.28a.272.272 0 0 0-.27-.282H9.315Z"/><path fill="#ADA2B5" d="M16.538 7.383H10.53a.656.656 0 0 0-.641.527l-.203.88h7.763l-.203-.88a.733.733 0 0 0-.708-.527Z"/><path fill="#62345B" d="M17.415 9.21H9.652c-.135 0-.236-.07-.337-.175a.505.505 0 0 1-.068-.387l.203-.878c.135-.493.574-.88 1.08-.88h6.041c.506 0 .945.352 1.08.88l.203.878a.502.502 0 0 1-.068.387c-.135.106-.236.176-.371.176Zm-7.222-.878h6.682l-.067-.316c-.034-.106-.136-.211-.237-.211H10.53c-.101 0-.202.07-.236.21l-.101.317Z"/><path fill="#92D3CB" d="M13.534 17.578c1.118 0 2.025-.944 2.025-2.11 0-1.164-.907-2.109-2.025-2.109-1.119 0-2.025.945-2.025 2.11s.906 2.11 2.025 2.11Z"/><path fill="#62345B" d="M13.534 18c-1.35 0-2.43-1.16-2.43-2.531 0-1.371 1.114-2.531 2.43-2.531 1.35 0 2.43 1.16 2.43 2.53 0 1.372-1.08 2.532-2.43 2.532Zm0-4.219c-.878 0-1.62.739-1.62 1.688s.709 1.687 1.62 1.687c.911 0 1.62-.738 1.62-1.687 0-.95-.743-1.688-1.62-1.688Z"/><path fill="#62345B" d="M13.534 25.277c-5.94 0-10.766-5.027-10.766-11.215 0-6.187 4.826-11.214 10.766-11.214S24.3 7.875 24.3 14.063c0 6.187-4.826 11.214-10.766 11.214Zm0-21.55c-5.468 0-9.923 4.64-9.923 10.335 0 5.696 4.455 10.336 9.923 10.336 5.467 0 9.922-4.64 9.922-10.335 0-5.696-4.455-10.336-9.922-10.336Z"/></svg>