<svg xmlns="http://www.w3.org/2000/svg" fill="none" viewBox="0 0 27 36"><path fill="#003FAD" d="M26.629 14.063c0-7.524-5.873-13.641-13.095-13.641C6.31.422.439 6.539.439 14.062c0 .247 0 .493.034.704.37 7.664 6.345 16.77 12.217 20.566.27.176.574.246.878.246.303 0 .573-.07.843-.246C20.284 31.57 26.258 22.43 26.63 14.766v-.704Z"/><path fill="#00286F" d="M13.534.422c-.372 0-.777.035-1.148.07 6.683.598 11.948 6.434 11.948 13.57 0 .247 0 .458-.034.704-.338 7.523-6.143 16.488-11.914 20.355l.304.211c.27.176.574.246.878.246.303 0 .573-.07.843-.246C20.284 31.57 26.258 22.43 26.63 14.766c0-.246.034-.457.034-.704C26.629 6.54 20.756.422 13.533.422Z" opacity=".2"/><path fill="#00286D" d="M13.534 36c-.372 0-.777-.105-1.08-.316C6.784 32.063.405 23.027.034 14.8c0-.246-.034-.492-.034-.739C0 6.293 6.075 0 13.5 0S27 6.328 27 14.063c0 .246 0 .492-.034.738-.371 8.226-6.75 17.261-12.42 20.918-.236.175-.607.281-1.012.281Zm0-35.156C6.547.844.877 6.75.877 14.027v.704c.372 7.699 6.514 16.663 12.016 20.214.168.106.404.176.64.176v.422-.457c.237 0 .44-.07.608-.176 5.501-3.55 11.644-12.515 12.015-20.215 0-.246.034-.457.034-.703C26.19 6.785 20.52.844 13.534.844Z"/><path fill="#fff" d="M13.534 24.82c5.703 0 10.327-4.816 10.327-10.757 0-5.942-4.624-10.758-10.327-10.758-5.704 0-10.328 4.816-10.328 10.758 0 5.941 4.624 10.758 10.328 10.758Z"/><path fill="#00286D" d="M13.534 25.277c-5.94 0-10.766-5.027-10.766-11.215 0-6.187 4.826-11.214 10.766-11.214S24.3 7.875 24.3 14.063c0 6.187-4.826 11.214-10.766 11.214Zm0-21.55c-5.468 0-9.923 4.64-9.923 10.335 0 5.696 4.455 10.336 9.923 10.336 5.467 0 9.922-4.64 9.922-10.335 0-5.696-4.455-10.336-9.922-10.336Z"/></svg>