<svg xmlns="http://www.w3.org/2000/svg" fill="none" viewBox="0 0 27 36"><path fill="#62345B" d="M21.499 33.33c0 1.476-2.295 2.67-5.13 2.67h-2.835c0-1.475 4.758-5.198 5.535-4.952 1.451.492 2.43 1.334 2.43 2.283Z" opacity=".2"/><path fill="#F1EE8D" d="M26.629 14.049C26.629 6.533 20.756.42 13.534.42 6.31.421.439 6.533.439 14.05c0 .246 0 .491.033.702.372 7.657 6.345 16.753 12.218 20.546.27.176.574.246.877.246.304 0 .574-.07.844-.245 5.873-3.759 11.846-12.89 12.218-20.547v-.702Z"/><path fill="#62345B" d="M13.534.421c-.372 0-.777.036-1.148.07C19.07 1.09 24.334 6.92 24.334 14.05c0 .246 0 .456-.034.702-.338 7.516-6.143 16.472-11.914 20.336l.304.21c.27.176.574.246.878.246.303 0 .573-.07.843-.245 5.873-3.759 11.847-12.89 12.218-20.547 0-.246.034-.456.034-.702C26.629 6.533 20.756.42 13.533.42Z" opacity=".2"/><path fill="#62345B" d="M13.534 35.965c-.372 0-.777-.106-1.08-.316C6.784 32.03.405 23.005.034 14.786c0-.245-.034-.491-.034-.737C0 6.287 6.075 0 13.5 0S27 6.322 27 14.049c0 .246 0 .492-.034.737-.371 8.219-6.75 17.245-12.42 20.898-.236.175-.607.28-1.012.28Zm0-35.122C6.547.843.877 6.743.877 14.013c0 .246 0 .457.034.703.371 7.692 6.514 16.648 12.015 20.195.169.106.405.176.642.176v.421-.456c.236 0 .438-.07.607-.176 5.501-3.547 11.644-12.503 12.015-20.195 0-.246.034-.457.034-.702C26.19 6.779 20.52.843 13.534.843Z"/><path fill="#fff" d="M13.534 24.796c5.704 0 10.327-4.812 10.327-10.747 0-5.936-4.623-10.748-10.327-10.748S3.206 8.113 3.206 14.05c0 5.935 4.624 10.747 10.328 10.747Z"/><path fill="#EE7F8F" d="m13.905 7.305 1.586 3.97c.068.14.169.245.338.245l4.117.351c.338.035.473.457.236.703l-3.138 2.81c-.102.105-.17.245-.135.386l.945 4.18c.067.35-.27.631-.574.42l-3.544-2.247a.416.416 0 0 0-.405 0L9.787 20.37c-.303.175-.64-.106-.573-.422l.945-4.18c.033-.14 0-.315-.135-.386l-3.14-2.81a.398.398 0 0 1 .237-.702l4.118-.351c.135 0 .27-.105.337-.246l1.586-3.969c.135-.316.608-.316.743 0Z"/><path fill="#62345B" d="M17.483 20.898c-.136 0-.304-.036-.405-.14l-3.544-2.214-3.51 2.248c-.338.21-.81.14-1.046-.21a.76.76 0 0 1-.135-.703l.945-4.18-3.14-2.774c-.235-.21-.337-.562-.235-.913.1-.316.37-.562.708-.562l4.118-.351 1.586-3.97c.135-.315.405-.526.743-.526.337 0 .607.21.742.527l1.586 3.968 4.118.352a.812.812 0 0 1 .709.562c.1.316 0 .667-.237.913l-3.139 2.774.912 4.18a.843.843 0 0 1-.135.702.819.819 0 0 1-.641.317Zm-3.95-3.232c.136 0 .305.035.406.14l3.442 2.213-.911-4.144a.873.873 0 0 1 .27-.843l3.071-2.74-4.05-.35c-.303-.036-.573-.211-.675-.527l-1.552-3.829-1.553 3.899a.827.827 0 0 1-.675.527l-4.05.35 3.072 2.74a.875.875 0 0 1 .27.843l-.945 4.11 3.442-2.213a.592.592 0 0 1 .439-.176Z"/><path fill="#62345B" d="M13.534 25.253c-5.94 0-10.767-5.023-10.767-11.204 0-6.182 4.827-11.204 10.767-11.204 5.94 0 10.766 5.022 10.766 11.204 0 6.181-4.826 11.204-10.766 11.204Zm0-21.53c-5.468 0-9.923 4.636-9.923 10.326s4.455 10.326 9.923 10.326c5.467 0 9.922-4.637 9.922-10.326 0-5.69-4.455-10.326-9.922-10.326Z"/></svg>