<svg xmlns="http://www.w3.org/2000/svg" fill="none" viewBox="0 0 27 36"><path fill="#EE7F8F" d="M26.629 14.063c0-7.524-5.873-13.641-13.095-13.641C6.31.422.439 6.539.439 14.062c0 .247 0 .493.034.704.37 7.664 6.345 16.77 12.217 20.566.27.176.574.246.878.246.303 0 .573-.07.843-.246C20.284 31.57 26.258 22.43 26.63 14.766v-.704Z"/><path fill="#62345B" d="M13.534.422c-.372 0-.777.035-1.148.07 6.683.598 11.948 6.434 11.948 13.57 0 .247 0 .458-.034.704-.338 7.523-6.143 16.488-11.914 20.355l.304.211c.27.176.574.246.877.246.304 0 .574-.07.844-.246C20.284 31.57 26.257 22.43 26.63 14.766c0-.246.033-.457.033-.704C26.63 6.54 20.756.422 13.534.422Z" opacity=".2"/><path fill="#62345B" d="M13.534 36c-.372 0-.777-.105-1.08-.316C6.784 32.063.405 23.027.034 14.8c0-.246-.034-.492-.034-.739C0 6.293 6.075 0 13.5 0S27 6.328 27 14.063c0 .246 0 .492-.034.738-.371 8.226-6.75 17.261-12.42 20.918-.236.175-.607.281-1.012.281Zm0-35.156C6.547.844.877 6.75.877 14.027v.704c.372 7.699 6.514 16.663 12.016 20.214.168.106.404.176.64.176v.422-.457c.237 0 .44-.07.608-.176 5.501-3.55 11.644-12.515 12.015-20.215 0-.246.034-.457.034-.703C26.19 6.785 20.52.844 13.534.844Z"/><path fill="#fff" d="M13.534 24.82c5.704 0 10.327-4.816 10.327-10.758 0-5.94-4.623-10.757-10.327-10.757S3.206 8.12 3.206 14.063c0 5.94 4.624 10.757 10.328 10.757Z"/><path fill="#ADA2B5" d="M17.415 16.91a.571.571 0 0 0-.574.106 5.084 5.084 0 0 1-3.307 1.23 5.084 5.084 0 0 1-3.308-1.23.571.571 0 0 0-.574-.106c-2.025.668-3.408 2.707-3.206 4.992a10.05 10.05 0 0 0 7.088 2.918c2.733 0 5.231-1.125 7.087-2.918.203-2.285-1.215-4.359-3.206-4.992Z"/><path fill="#62345B" d="M13.534 25.277c-5.94 0-10.767-5.027-10.767-11.215 0-6.187 4.827-11.214 10.767-11.214 5.94 0 10.766 5.027 10.766 11.215 0 6.187-4.826 11.214-10.766 11.214Zm0-21.55c-5.468 0-9.923 4.64-9.923 10.335 0 5.696 4.455 10.336 9.923 10.336 5.467 0 9.922-4.64 9.922-10.335 0-5.696-4.455-10.336-9.922-10.336Z"/><path fill="#ADA2B5" d="M13.534 15.96c2.069 0 3.746-1.746 3.746-3.901 0-2.156-1.677-3.903-3.746-3.903-2.07 0-3.747 1.747-3.747 3.903 0 2.155 1.678 3.902 3.747 3.902Z"/><path fill="#62345B" d="M13.534 16.418c-2.295 0-4.185-1.934-4.185-4.36 0-2.425 1.89-4.324 4.185-4.324s4.185 1.934 4.185 4.36-1.89 4.324-4.185 4.324Zm0-7.84c-1.823 0-3.342 1.547-3.342 3.48 0 1.934 1.52 3.481 3.342 3.481s3.34-1.547 3.34-3.48c0-1.934-1.518-3.48-3.34-3.48Zm0 16.699c-2.768 0-5.366-1.09-7.358-3.058-.067-.07-.135-.176-.135-.282-.202-2.425 1.283-4.71 3.51-5.449a1 1 0 0 1 .979.211 4.661 4.661 0 0 0 6.075 0 1 1 0 0 1 .979-.21c2.227.737 3.712 3.023 3.51 5.448 0 .106-.068.211-.135.282-2.059 1.968-4.658 3.058-7.425 3.058ZM6.85 21.691c1.823 1.723 4.185 2.707 6.683 2.707 2.497 0 4.86-.949 6.682-2.707.101-1.968-1.114-3.797-2.936-4.36-.068-.034-.135 0-.169.036a5.532 5.532 0 0 1-3.543 1.3 5.465 5.465 0 0 1-3.544-1.3c-.068-.035-.135-.07-.169-.035-1.89.562-3.071 2.39-3.004 4.36Z"/><path fill="#62345B" d="M17.28 12.059c0-2.145-1.688-3.903-3.746-3.903-.135 0-.237 0-.372.035.945.246 1.79 3.13 2.228 7.278 1.114-.668 1.89-1.969 1.89-3.41Zm.135 4.851a.571.571 0 0 0-.574.106c-.405.316-.81.597-1.282.808.135 1.582.168 3.305.168 5.098 0 .562 0 1.125-.033 1.652a10.36 10.36 0 0 0 4.927-2.672c.203-2.285-1.215-4.359-3.206-4.992Z" opacity=".1"/></svg>