<svg xmlns="http://www.w3.org/2000/svg" fill="none" viewBox="0 0 27 36"><path fill="#92D3CB" d="M26.629 14.063c0-7.524-5.873-13.641-13.095-13.641C6.31.422.439 6.539.439 14.062c0 .247 0 .493.034.704.37 7.664 6.345 16.77 12.217 20.566.27.176.574.246.878.246.303 0 .573-.07.843-.246C20.284 31.57 26.258 22.43 26.63 14.766v-.704Z"/><path fill="#62345B" d="M13.534.422c-.372 0-.777.035-1.148.07 6.683.598 11.948 6.434 11.948 13.57 0 .247 0 .458-.034.704-.338 7.523-6.143 16.488-11.914 20.355l.304.211c.27.176.574.246.878.246.303 0 .573-.07.843-.246C20.284 31.57 26.258 22.43 26.63 14.766c0-.246.034-.457.034-.704C26.629 6.54 20.756.422 13.533.422Z" opacity=".2"/><path fill="#62345B" d="M13.534 36c-.372 0-.777-.105-1.08-.316C6.784 32.063.405 23.027.034 14.8c0-.246-.034-.492-.034-.739C0 6.293 6.075 0 13.5 0S27 6.328 27 14.063c0 .246 0 .492-.034.738-.371 8.226-6.75 17.261-12.42 20.918-.236.175-.607.281-1.012.281Zm0-35.156C6.547.844.877 6.75.877 14.027c0 .246 0 .457.034.704.371 7.699 6.514 16.663 12.015 20.214.169.106.405.176.642.176v.422-.457c.236 0 .438-.07.607-.176 5.501-3.55 11.644-12.515 12.015-20.215 0-.246.034-.457.034-.703C26.19 6.785 20.52.844 13.534.844Z"/><path fill="#fff" d="M13.534 24.82c5.704 0 10.327-4.816 10.327-10.757 0-5.942-4.623-10.758-10.327-10.758S3.206 8.12 3.206 14.063c0 5.94 4.624 10.757 10.328 10.757Z"/><path fill="#E3D34C" d="M18.293 18.738H8.774c-.574 0-1.012-.457-1.012-1.054v-1.371h11.576v1.37c-.034.563-.473 1.055-1.046 1.055Z"/><path fill="#62345B" d="M18.293 19.16H8.774c-.776 0-1.417-.668-1.417-1.476v-1.372c0-.246.202-.421.405-.421h11.576c.236 0 .405.21.405.421v1.372c0 .808-.642 1.476-1.451 1.476ZM8.168 16.77v.914c0 .351.27.632.607.632h9.551a.618.618 0 0 0 .608-.632v-.915H8.168Zm12.116-1.618h-13.5c-.237 0-.405-.21-.405-.421s.202-.422.405-.422h13.5c.236 0 .405.21.405.421s-.169.422-.405.422Z"/><path fill="#E3D34C" d="M19.305 13.113H7.763c0-1.582.945-3.058 2.396-3.586 2.261-.808 4.522-.808 6.783 0 1.418.528 2.363 1.97 2.363 3.586Z"/><path fill="#62345B" d="M19.339 13.535H7.763c-.237 0-.405-.21-.405-.422 0-1.828 1.08-3.41 2.666-4.008 2.329-.843 4.725-.843 7.054 0 1.586.563 2.632 2.145 2.666 3.903v.07c0 .281-.169.457-.405.457ZM8.2 12.656h10.665c-.168-1.265-.945-2.32-2.092-2.742-2.16-.773-4.354-.773-6.514 0-1.114.422-1.924 1.512-2.059 2.742Z"/><path fill="#62345B" d="M10.361 11.918c-.27 0-.506-.246-.506-.527 0-.282.236-.528.506-.528s.506.246.506.528c0 .28-.236.527-.506.527Zm4.624-.808c-.27 0-.506-.247-.506-.528s.236-.527.506-.527.506.246.506.527-.236.527-.506.527Zm1.924 1.195c-.27 0-.506-.246-.506-.528 0-.28.236-.527.506-.527s.506.246.506.527c0 .282-.236.528-.506.528Z"/><path fill="#62345B" d="M13.534 25.277c-5.94 0-10.767-5.027-10.767-11.215 0-6.187 4.827-11.214 10.767-11.214 5.94 0 10.766 5.027 10.766 11.214 0 6.188-4.826 11.215-10.766 11.215Zm0-21.55c-5.468 0-9.923 4.64-9.923 10.335 0 5.696 4.455 10.336 9.923 10.336 5.467 0 9.922-4.64 9.922-10.336 0-5.695-4.455-10.335-9.922-10.335Z"/></svg>