<svg xmlns="http://www.w3.org/2000/svg" fill="none" viewBox="0 0 27 36"><path fill="#62345B" d="M21.499 33.33c0 1.476-2.295 2.67-5.13 2.67h-2.835c0-1.475 4.759-5.198 5.535-4.952 1.451.492 2.43 1.334 2.43 2.283Z" opacity=".2"/><path fill="#ADA2B5" d="M26.629 14.049C26.629 6.533 20.756.42 13.534.42 6.31.421.439 6.533.439 14.05c0 .246 0 .492.034.702.37 7.657 6.345 16.753 12.217 20.547.27.175.574.245.878.245.303 0 .573-.07.843-.245 5.873-3.759 11.847-12.89 12.218-20.547v-.702Z"/><path fill="#62345B" d="M13.534.421c-.372 0-.777.036-1.148.07C19.07 1.09 24.334 6.92 24.334 14.05c0 .246 0 .456-.034.702-.338 7.516-6.143 16.472-11.914 20.336l.304.21c.27.176.574.246.878.246.303 0 .573-.07.843-.245 5.873-3.759 11.847-12.89 12.218-20.547 0-.246.034-.456.034-.702C26.629 6.533 20.756.42 13.533.42Z" opacity=".2"/><path fill="#62345B" d="M13.534 35.965c-.372 0-.777-.106-1.08-.316C6.784 32.03.405 23.005.034 14.786c0-.245-.034-.491-.034-.737C0 6.287 6.075 0 13.5 0S27 6.322 27 14.049c0 .246 0 .492-.034.737-.371 8.219-6.75 17.245-12.42 20.898-.236.175-.607.28-1.012.28Zm0-35.122C6.547.843.877 6.743.877 14.013c0 .246 0 .457.034.703.371 7.692 6.514 16.648 12.015 20.195.169.106.405.176.642.176v.421-.456c.236 0 .438-.07.607-.176 5.501-3.547 11.644-12.503 12.015-20.195 0-.246.034-.457.034-.702C26.19 6.779 20.52.843 13.534.843Z"/><path fill="#fff" d="M13.534 24.796c5.704 0 10.327-4.812 10.327-10.747 0-5.936-4.623-10.748-10.327-10.748S3.206 8.113 3.206 14.05c0 5.935 4.624 10.747 10.328 10.747Z"/><path fill="#EE7F8F" d="M17.55 19.493H9.517c-.944 0-1.687-.773-1.687-1.756v-4.46h-.338c-.37 0-.675-.317-.675-.703v-.352a.684.684 0 0 1 .675-.807h12.05c.404 0 .742.386.674.807v.352c0 .386-.303.702-.675.702h-.337v4.46c.034.984-.743 1.757-1.654 1.757Z"/><path fill="#62345B" d="M17.55 19.95H9.518c-.574 0-1.08-.247-1.485-.633a2.226 2.226 0 0 1-.608-1.545v-4.004c-.574-.035-1.012-.527-1.012-1.124v-.316a1.187 1.187 0 0 1 .27-.878c.202-.246.506-.387.843-.387h12.049c.338 0 .641.14.844.387.202.246.303.562.27.878v.316c0 .597-.439 1.089-1.013 1.124v4.004c0 .597-.202 1.124-.607 1.545-.439.386-.979.632-1.519.632ZM7.493 11.87c-.102 0-.17.07-.203.106-.034.035-.067.105-.067.21v.422c0 .14.1.28.27.28h.337c.101 0 .203.036.304.141.067.07.135.211.135.316v4.46c0 .352.135.668.371.95.236.245.574.386.911.386h7.999c.337 0 .641-.141.911-.387.27-.246.372-.597.372-.948v-4.46c0-.106.033-.246.135-.317a.494.494 0 0 1 .303-.14h.338c.135 0 .27-.106.27-.281v-.421c0-.106-.034-.176-.068-.211-.034-.036-.101-.106-.202-.106H7.493Z"/><path fill="#62345B" d="M13.534 18.193a.409.409 0 0 1-.405-.456v-2.705c0-.246.202-.421.405-.421.236 0 .405.21.405.456v2.705c0 .21-.169.421-.405.421Zm-3.038 0a.408.408 0 0 1-.405-.456v-2.705c0-.246.203-.421.405-.421.236 0 .405.21.405.456v2.705c0 .21-.168.421-.405.421Zm6.075 0a.408.408 0 0 1-.405-.456v-2.705c0-.246.203-.421.405-.421.236 0 .405.21.405.456v2.705c0 .21-.168.421-.405.421Zm-6.075-6.322c-.067 0-.135 0-.202-.035-.203-.105-.304-.386-.169-.597l1.688-3.407c.1-.21.37-.316.573-.175.203.105.304.386.17.597l-1.688 3.407a.51.51 0 0 1-.372.21Zm6.075 0c-.169 0-.304-.07-.371-.246L14.512 8.22c-.1-.211-.033-.492.17-.598.202-.105.472-.035.573.176l1.687 3.407c.102.21.034.492-.168.597-.068.035-.135.07-.203.07Zm2.633 1.862H7.864c-.236 0-.405-.211-.405-.422 0-.21.202-.421.405-.421h11.374c.236 0 .405.21.405.421 0 .21-.203.422-.44.422Z"/><path fill="#62345B" d="M13.534 25.253c-5.94 0-10.767-5.023-10.767-11.204 0-6.182 4.827-11.204 10.767-11.204 5.94 0 10.766 5.022 10.766 11.204 0 6.181-4.826 11.204-10.766 11.204Zm0-21.53c-5.468 0-9.923 4.636-9.923 10.326s4.455 10.326 9.923 10.326c5.467 0 9.922-4.637 9.922-10.326 0-5.69-4.455-10.326-9.922-10.326Z"/></svg>