<svg xmlns="http://www.w3.org/2000/svg" viewBox="0 0 20 20"><path fill-rule="evenodd" d="M7.33.92H7.3c-.67 0-1.22 0-1.67.03-.46.04-.88.12-1.27.32-.61.31-1.11.81-1.42 1.42-.2.4-.28.81-.32 1.27-.04.45-.04 1-.04 1.68V14.36c0 .68 0 1.23.04 1.68.04.46.12.88.32 1.27.3.61.8 1.1 1.42 1.42.39.2.8.28 1.27.32.45.03 1 .03 1.67.03h5.4c.67 0 1.22 0 1.67-.03.46-.04.88-.12 1.27-.32.61-.31 1.11-.81 1.42-1.42.2-.4.28-.81.32-1.27.04-.45.04-1 .04-1.68V6.67c0-.2-.08-.4-.22-.53l-5-5a.75.75 0 0 0-.53-.22H7.33ZM5.03 2.6c.15-.08.35-.13.72-.16.38-.03.87-.03 1.58-.03h3.59v2.94l.01.58c.02.19.05.4.16.61.15.3.4.54.7.7.2.1.42.14.6.15.17.02.37.02.59.02h2.94v6.91c0 .72 0 1.2-.03 1.58-.04.37-.1.57-.16.72-.17.33-.44.6-.77.76-.14.08-.34.13-.71.16-.38.03-.87.03-1.58.03H7.33c-.7 0-1.2 0-1.58-.03a1.88 1.88 0 0 1-.71-.16c-.33-.17-.6-.43-.77-.76a1.88 1.88 0 0 1-.16-.72 21.6 21.6 0 0 1-.03-1.58V5.67c0-.72 0-1.2.03-1.58.04-.37.1-.57.16-.72.17-.33.44-.6.77-.76Zm9.83 3.3-2.44-2.43v1.85a6.87 6.87 0 0 0 .03.57 6.87 6.87 0 0 0 .55.02h1.86ZM10.75 10a.75.75 0 0 0-1.5 0v1.75H7.5a.75.75 0 0 0 0 1.5h1.75V15a.75.75 0 0 0 1.5 0v-1.75h1.75a.75.75 0 0 0 0-1.5h-1.75V10Z" clip-rule="evenodd"/></svg>
