<svg viewBox="0 0 24 24" xmlns="http://www.w3.org/2000/svg"><path d="M6.5 2.28a5.2 5.2 0 0 0-2.34.92 4.86 4.86 0 0 0-1.88 3.3c-.03.24-.04 2.2-.03 5.76.02 5.92 0 5.5.25 6.25.24.72.59 1.27 1.16 1.83a4.7 4.7 0 0 0 2.52 1.34c.41.09 11.22.09 11.64 0a4.7 4.7 0 0 0 2.52-1.34c.59-.58.93-1.13 1.17-1.88.24-.73.23-.44.23-6.46s.01-5.73-.23-6.46a4.47 4.47 0 0 0-1.08-1.8c-.44-.47-.76-.7-1.33-.98a4.58 4.58 0 0 0-1.64-.48c-.48-.05-10.49-.04-10.97 0m11.41 1.6c.15.05.44.17.64.27.29.15.43.26.74.57a3.1 3.1 0 0 1 .85 1.42l.09.32v11.08l-.1.32c-.15.55-.41.99-.82 1.4-.42.43-.75.64-1.3.83l-.38.13H6.38L6 20.09c-.55-.2-.88-.4-1.3-.83a3.2 3.2 0 0 1-.83-1.38l-.09-.3V6.42l.1-.3a5 5 0 0 1 .27-.66c.15-.3.26-.43.57-.74a3.29 3.29 0 0 1 1.71-.92c.1-.02 2.66-.03 5.69-.02h5.5l.28.1m-6.2 3.94a.86.86 0 0 0-.4.43c-.05.12-.06.37-.06 1.57v1.42H9.77c-1.28.02-1.49.03-1.59.09-.58.32-.56 1.08.04 1.35.15.07.28.08 1.59.08h1.43v1.43c0 1.3 0 1.44.08 1.59.28.62 1.08.62 1.36 0 .07-.15.08-.28.08-1.59v-1.43h1.43c1.3 0 1.44 0 1.59-.08.3-.13.46-.38.46-.68a.67.67 0 0 0-.2-.5c-.23-.24-.2-.24-1.81-.25l-1.47-.01V9.8c0-1.58 0-1.62-.27-1.86a.75.75 0 0 0-.79-.13"/></svg>