<svg xmlns="http://www.w3.org/2000/svg" viewBox="0 0 20 20"><path fill-rule="evenodd" d="m9.91 2.93.08-.1h.02l.07.1c.1.14.23.35.42.69l6.86 11.84a10.3 10.3 0 0 1 .43.84l-.12.02-.82.01H3.15a10.24 10.24 0 0 1-.95-.05l.05-.11c.07-.16.2-.37.4-.71l-.66-.38.65.38L9.5 3.62l.42-.7Zm.73-1.46a1.58 1.58 0 0 0-1.28 0c-.32.14-.52.38-.67.59-.14.2-.3.48-.48.78l-.01.03L1.34 14.7l-.01.02c-.18.3-.34.58-.44.8-.11.24-.22.54-.19.88.05.45.28.86.65 1.12.27.2.6.26.85.28.25.02.56.02.91.02H16.9c.35 0 .66 0 .91-.02.26-.02.58-.08.85-.28.37-.26.6-.67.65-1.12l-.75-.07.75.07c.03-.34-.08-.64-.19-.87-.1-.23-.26-.5-.44-.8l-.01-.03L11.8 2.87l-.01-.03-.48-.78c-.15-.2-.35-.45-.67-.6Zm.11 6.03a.75.75 0 0 0-1.5 0v3.33a.75.75 0 0 0 1.5 0V7.5ZM10 13.42a.75.75 0 1 0 0 1.5.75.75 0 0 0 0-1.5Z" clip-rule="evenodd"/></svg>
