<svg xmlns="http://www.w3.org/2000/svg" viewBox="0 0 20 20"><path fill-rule="evenodd" d="M9.98 3.27h.04l.1.03 6.17 1.37a6.18 6.18 0 0 1 .45.12v.05l.01.4v.93a6.85 6.85 0 0 1-.03.56l-.07.01-.48.01H3.83a6.87 6.87 0 0 1-.56-.03 6.87 6.87 0 0 1-.02-.55v-.93a6.18 6.18 0 0 1 .03-.47l.04-.01.39-.1L9.87 3.3l.11-.03Zm6.8 4.97h-.2v5.18l.2.01c.18.02.4.05.6.16.3.15.55.4.7.7.1.2.14.42.16.6l.01.59V16.19l-.01.59c-.02.18-.05.4-.16.6-.15.3-.4.55-.7.7-.2.1-.42.14-.6.16l-.59.01H3.81l-.59-.01a1.6 1.6 0 0 1-.6-.16c-.3-.15-.55-.4-.7-.7a1.6 1.6 0 0 1-.16-.6l-.01-.59V15.48l.01-.59c.02-.18.05-.4.16-.6.15-.3.4-.55.7-.7.2-.1.42-.14.6-.16l.2-.01V8.25l-.2-.01a1.6 1.6 0 0 1-.6-.16c-.3-.15-.55-.4-.7-.7a1.6 1.6 0 0 1-.16-.6l-.01-.59V5.21l.01-.48a1.58 1.58 0 0 1 1.13-1.41l.47-.11h.02l6.17-1.38h.02l.3-.05h.27c.1 0 .2.03.29.05h.02l6.17 1.37h.02l.47.12a1.58 1.58 0 0 1 1.13 1.41l.01.48V6.2l-.01.59c-.02.18-.05.4-.16.6-.15.3-.4.55-.7.7-.2.1-.42.14-.6.16Zm-3.95.01h2.25v5.17h-2.25V8.25Zm-.75 6.67h4.09a6.87 6.87 0 0 1 .56.03 6.85 6.85 0 0 1 .02.55v.67a6.85 6.85 0 0 1-.03.56 6.85 6.85 0 0 1-.55.02H3.83a6.85 6.85 0 0 1-.56-.03l-.01-.07-.01-.48v-.67a6.87 6.87 0 0 1 .03-.57h.07l.48-.01h8.25Zm-4.91-1.5H4.92V8.25h2.25v5.17Zm1.5 0V8.25h2.66v5.17H8.67Z" clip-rule="evenodd"/></svg>
