<svg xmlns="http://www.w3.org/2000/svg" viewBox="0 0 20 20"><path fill-rule="evenodd" d="M9.33.92H9.3c-.44 0-.81 0-1.12.02-.33.03-.64.09-.94.24-.46.23-.83.6-1.06 1.06-.15.3-.21.61-.24.94-.02.3-.02.65-.02 1.07H2.5a.75.75 0 0 0 0 1.5h.92v8.61c0 .68 0 1.23.03 1.68.04.46.12.88.32 1.27.31.61.81 1.1 1.42 1.42.4.2.81.28 1.27.32.45.03 1 .03 1.68.03H11.86c.68 0 1.23 0 1.68-.03.46-.04.88-.12 1.27-.32.61-.31 1.1-.81 1.42-1.42.2-.4.28-.81.32-1.27.03-.45.03-1 .03-1.68V5.75h.92a.75.75 0 0 0 0-1.5h-3.42c0-.42 0-.78-.02-1.07a2.46 2.46 0 0 0-.24-.94c-.23-.46-.6-.83-1.06-1.06-.3-.15-.61-.21-.94-.24-.3-.02-.68-.02-1.12-.02H9.33ZM4.92 5.75h10.16v8.58c0 .72 0 1.2-.03 1.58-.03.37-.08.57-.16.72-.17.33-.43.6-.76.76-.15.08-.35.13-.72.16-.38.03-.86.03-1.58.03H8.17c-.72 0-1.2 0-1.58-.03a1.88 1.88 0 0 1-.72-.16l-.34.67.34-.67c-.33-.17-.6-.43-.76-.76a1.88 1.88 0 0 1-.16-.72 21.6 21.6 0 0 1-.03-1.58V5.75Zm2.5-1.5h5.16c0-.43 0-.72-.02-.95a1.02 1.02 0 0 0-.08-.38.92.92 0 0 0-.4-.4 1.02 1.02 0 0 0-.38-.08c-.24-.02-.55-.02-1.03-.02H9.33c-.48 0-.79 0-1.03.02-.23.02-.33.05-.38.08a.92.92 0 0 0-.4.4c-.03.05-.06.15-.08.38-.02.23-.02.52-.02.95Zm1.66 5.33a.75.75 0 1 0-1.5 0v4.17a.75.75 0 0 0 1.5 0V9.58Zm3.34 0a.75.75 0 0 0-1.5 0v4.17a.75.75 0 0 0 1.5 0V9.58Z" clip-rule="evenodd"/></svg>
