<svg viewBox="0 0 24 24" xmlns="http://www.w3.org/2000/svg"><path d="M11.3 2.79a6.76 6.76 0 0 0-5.9 5.3c-.13.65-.16 1.11-.16 2.8 0 1.75-.01 1.86-.2 2.22-.13.26-.35.49-.96.97-.3.24-.63.53-.73.65a2.6 2.6 0 0 0-.51 2.29c.12.45.3.65.67.72.31.07.71-.2.81-.53.05-.15.04-.23-.02-.52-.05-.29-.06-.39-.02-.55.07-.31.17-.43.71-.87 1.06-.84 1.38-1.25 1.64-2.1l.1-.35.03-2.06C6.8 8.58 6.8 8.58 7 7.9a5.36 5.36 0 0 1 2.08-2.76A5.12 5.12 0 0 1 12 4.27a5.11 5.11 0 0 1 2.92.87c.32.22.51.27.78.2.24-.06.48-.3.52-.53.08-.4-.07-.66-.52-.96a7.09 7.09 0 0 0-2.4-.97 10.3 10.3 0 0 0-2-.1m8.52.5a.85.85 0 0 0-.24.11c-.07.05-3.75 3.72-8.19 8.16-7.37 7.37-8.07 8.08-8.11 8.24a.75.75 0 0 0 .93.93c.14-.04.28-.15.9-.76l.71-.72h6.54l6.54-.02.32-.1a2.8 2.8 0 0 0 1.16-.74c.56-.56.82-1.14.85-1.9.02-.5-.05-.85-.25-1.26-.2-.4-.39-.6-1.06-1.14-.77-.62-.94-.82-1.1-1.26-.02-.07-.04-.88-.06-2.08-.03-2.09-.04-2.25-.26-3.02a7.24 7.24 0 0 0-.2-.62l-.09-.24 1.23-1.24c1.08-1.09 1.24-1.26 1.28-1.42a.73.73 0 0 0-.3-.82.81.81 0 0 0-.6-.1m-2.68 5.16c.06.25.07.62.1 2.34l.03 2.04.1.35c.26.85.58 1.26 1.64 2.1.27.22.54.47.58.54.37.6.03 1.48-.7 1.82l-.23.11-5.68.01-5.68.01 4.86-4.86c3.1-3.1 4.87-4.84 4.89-4.8l.1.34M10.3 19.88a.82.82 0 0 0-.43.31c-.13.2-.14.63-.02.8.2.27.73.54 1.35.68.39.09 1.2.09 1.58 0 .62-.14 1.14-.4 1.35-.68.12-.17.12-.6-.02-.8-.23-.34-.6-.41-1.06-.2-.73.33-1.39.34-2.1 0-.28-.12-.49-.16-.65-.11"/></svg>