<svg viewBox="0 0 24 24" xmlns="http://www.w3.org/2000/svg"><path d="M11.3 2.785a6.803 6.803 0 0 0-5.705 4.583c-.297.887-.355 1.46-.355 3.52-.001 1.75-.011 1.863-.197 2.226-.131.257-.358.485-.966.967-.636.505-.864.751-1.055 1.138-.206.417-.274.758-.251 1.261.034.764.294 1.345.849 1.9a2.8 2.8 0 0 0 1.16.731l.32.109h13.8l.32-.109a2.8 2.8 0 0 0 1.16-.731c.555-.555.815-1.136.849-1.9.023-.503-.045-.845-.251-1.26-.194-.392-.385-.599-1.054-1.137-.64-.515-.836-.711-.968-.971-.185-.361-.195-.476-.196-2.224 0-1.686-.027-2.146-.161-2.798-.538-2.607-2.658-4.688-5.307-5.212-.422-.083-1.577-.137-1.992-.093m1.66 1.561c1.102.188 2.223.827 2.995 1.708.445.508.859 1.241 1.043 1.851.211.698.212.716.24 2.875l.027 2.04.108.352c.261.851.576 1.256 1.632 2.1.278.222.543.464.588.537.37.598.028 1.481-.706 1.825l-.227.106H5.34l-.227-.106c-.734-.344-1.076-1.227-.706-1.825.045-.073.31-.315.588-.537 1.057-.844 1.372-1.25 1.632-2.1l.107-.352.028-2.06c.03-2.177.031-2.185.24-2.858.336-1.081 1.124-2.128 2.078-2.76 1.149-.762 2.481-1.035 3.88-.796m-2.646 15.531a.817.817 0 0 0-.436.314c-.133.195-.141.625-.014.796.203.275.726.539 1.345.68.39.089 1.192.089 1.582 0 .619-.141 1.142-.405 1.345-.68.128-.172.119-.601-.015-.798-.234-.341-.605-.411-1.062-.201-.73.336-1.388.339-2.094.01-.286-.133-.493-.171-.651-.121"/></svg>