<svg viewBox="0 0 20 20" xmlns="http://www.w3.org/2000/svg"><path d="M2.97 1.8A1.6 1.6 0 0 0 1.8 3c-.02.1-.03 1.06-.03 2.42 0 1.35.01 2.3.03 2.42.1.57.63 1.09 1.2 1.2.24.04 4.6.04 4.84 0 .57-.11 1.09-.63 1.2-1.2.01-.11.03-1.07.03-2.42 0-1.36-.02-2.31-.04-2.42a1.58 1.58 0 0 0-1.2-1.2c-.22-.04-4.65-.04-4.86 0m9.16 0A1.6 1.6 0 0 0 10.97 3c-.02.1-.04 1.06-.04 2.42 0 1.35.02 2.3.04 2.42.1.57.62 1.09 1.2 1.2.23.04 4.6.04 4.83 0 .57-.11 1.1-.63 1.2-1.2.02-.11.03-1.07.03-2.42 0-1.36-.01-2.31-.03-2.42A1.58 1.58 0 0 0 17 1.8a95.3 95.3 0 0 0-4.87 0M7.56 3.28c.03.03.03 4.24 0 4.28-.04.03-4.25.03-4.28 0-.03-.04-.06-4.02-.03-4.18.01-.06.04-.12.08-.12.1-.03 4.2-.01 4.23.02m9.16 0c.04.03.04 4.24 0 4.28-.03.03-4.24.03-4.28 0-.03-.04-.05-4.02-.02-4.18 0-.06.04-.12.07-.12.1-.03 4.2-.01 4.23.02M2.97 10.97a1.6 1.6 0 0 0-1.17 1.2c-.02.1-.03 1.06-.03 2.41 0 1.36.01 2.31.03 2.42.1.57.63 1.1 1.2 1.2.1.02 1.06.03 2.42.03 1.35 0 2.3-.01 2.42-.03.57-.1 1.09-.63 1.2-1.2.01-.1.03-1.06.03-2.42 0-1.35-.02-2.3-.04-2.42a1.58 1.58 0 0 0-1.2-1.2c-.22-.03-4.65-.03-4.86.01m9.16 0a1.6 1.6 0 0 0-1.16 1.2c-.02.1-.04 1.06-.04 2.41 0 1.36.02 2.32.04 2.42.1.57.62 1.1 1.2 1.2.1.02 1.06.03 2.41.03 1.36 0 2.31-.01 2.42-.03.57-.1 1.1-.63 1.2-1.2.02-.1.03-1.06.03-2.42 0-1.35-.01-2.3-.03-2.42a1.58 1.58 0 0 0-1.2-1.2c-.22-.03-4.65-.03-4.87.01m-4.57 1.47c.03.04.03 4.25 0 4.28-.04.04-4.25.04-4.28 0-.03-.03-.06-4.01-.03-4.18.01-.06.04-.1.08-.12.1-.02 4.2 0 4.23.02m9.16 0c.04.04.04 4.25 0 4.28-.03.04-4.24.04-4.28 0-.03-.03-.05-4.01-.02-4.18 0-.06.04-.1.07-.12.1-.02 4.2 0 4.23.02"/></svg>