<svg xmlns="http://www.w3.org/2000/svg" viewBox="0 0 20 20"><path fill-rule="evenodd" d="M7.42 1.67a.75.75 0 0 0-1.5 0v.91c-.43 0-.8.01-1.12.04-.47.04-.88.12-1.28.32-.6.3-1.1.8-1.42 1.42-.2.39-.28.8-.31 1.27-.04.45-.04 1-.04 1.67V14.36c0 .68 0 1.23.04 1.68.03.46.12.88.31 1.27.32.61.81 1.1 1.42 1.42.4.2.81.28 1.28.32.44.03 1 .03 1.67.03H13.53c.67 0 1.23 0 1.67-.03.47-.04.88-.12 1.28-.32.6-.31 1.1-.81 1.42-1.42.2-.4.28-.81.31-1.27.04-.45.04-1 .04-1.68V7.3c0-.67 0-1.22-.04-1.67a3.33 3.33 0 0 0-.31-1.27c-.32-.61-.81-1.11-1.42-1.42-.4-.2-.81-.28-1.28-.32-.32-.03-.69-.03-1.12-.04v-.91a.75.75 0 0 0-1.5 0v.91H7.42v-.91ZM4.92 4.1c.26-.02.58-.02 1-.03V5a.75.75 0 1 0 1.5 0v-.92h5.16V5a.75.75 0 0 0 1.5 0v-.92c.42 0 .74.01 1 .03.37.04.57.1.71.16.33.17.6.44.77.77.07.14.13.34.16.71.03.38.03.87.03 1.58v.25H3.25v-.25c0-.7 0-1.2.03-1.58.03-.37.09-.57.16-.71.17-.33.44-.6.77-.77.14-.07.34-.12.7-.16ZM3.25 9.08h13.5v5.25c0 .72 0 1.2-.03 1.58-.03.37-.09.57-.16.72-.17.33-.44.6-.77.76-.14.08-.34.13-.7.16-.39.03-.88.03-1.59.03h-7c-.71 0-1.2 0-1.58-.03a1.88 1.88 0 0 1-.71-.16c-.33-.17-.6-.43-.77-.76a1.88 1.88 0 0 1-.16-.72 21.6 21.6 0 0 1-.03-1.58V9.08Z" clip-rule="evenodd"/></svg>
