<svg xmlns="http://www.w3.org/2000/svg" viewBox="0 0 20 20"><path fill-rule="evenodd" d="M4.33 3.42H4.3c-.44 0-.81 0-1.12.02-.33.03-.64.09-.94.24-.46.23-.83.6-1.06 1.06-.15.3-.21.61-.24.94-.02.3-.02.68-.02 1.12v6.4c0 .44 0 .81.02 1.12.03.33.09.64.24.94.23.46.6.83 1.06 1.06.3.15.61.21.94.24.3.02.68.02 1.12.02H15.7c.44 0 .81 0 1.12-.02.33-.03.64-.09.94-.24.46-.23.83-.6 1.06-1.06.15-.3.21-.61.24-.94.02-.3.02-.68.02-1.12V6.8c0-.44 0-.81-.02-1.12a2.46 2.46 0 0 0-.24-.94c-.23-.46-.6-.83-1.06-1.06-.3-.15-.61-.21-.94-.24-.3-.02-.68-.02-1.12-.02H4.33Zm-1.91 9.75V9.08h15.16v4.09c0 .48 0 .79-.02 1.03-.02.23-.05.33-.08.38a.92.92 0 0 1-.4.4c-.05.03-.15.06-.38.08-.24.02-.55.02-1.03.02H4.33c-.48 0-.79 0-1.03-.02a1.02 1.02 0 0 1-.38-.08.92.92 0 0 1-.4-.4 1.02 1.02 0 0 1-.08-.38c-.02-.24-.02-.55-.02-1.03Zm0-5.59h15.16v-.75c0-.48 0-.79-.02-1.03a1.02 1.02 0 0 0-.08-.38.92.92 0 0 0-.4-.4 1.02 1.02 0 0 0-.38-.08c-.24-.02-.55-.02-1.03-.02H4.33c-.48 0-.79 0-1.03.02-.23.02-.33.05-.38.08a.92.92 0 0 0-.4.4c-.03.05-.06.15-.08.38-.02.24-.02.55-.02 1.03v.75Z" clip-rule="evenodd"/></svg>
