<svg xmlns="http://www.w3.org/2000/svg" viewBox="0 0 20 20"><path fill-rule="evenodd" d="M7.5 17.42a.08.08 0 1 0 0 .16.08.08 0 0 0 0-.16Zm-1.58.08a1.58 1.58 0 1 1 3.16 0 1.58 1.58 0 0 1-3.16 0Zm8.25-.08a.08.08 0 1 0 0 .16.08.08 0 0 0 0-.16Zm-1.59.08a1.58 1.58 0 1 1 3.17 0 1.58 1.58 0 0 1-3.17 0ZM3.05.92a1.17 1.17 0 0 1 1.06.92l.05.28v.01l.3 2.12h13.09l.37.01a1.17 1.17 0 0 1 1.01.77c.07.2.07.4.05.52 0 .11-.03.24-.06.36v.02l-1.1 5.8v.02l-.2.93c-.08.27-.18.53-.34.77-.26.37-.6.66-1.02.85-.27.11-.54.16-.82.18-.26.02-.58.02-.95.02H7.3c-.39 0-.72 0-1-.02-.3-.02-.58-.07-.85-.2-.43-.2-.78-.5-1.03-.9a2.45 2.45 0 0 1-.32-.82 14 14 0 0 1-.15-.99v-.03L3.06 5.1l-.39-2.68H1.67a.75.75 0 0 1 0-1.5H3.05Zm1.62 4.83.76 5.6.14.9a1 1 0 0 0 .11.32c.1.15.23.27.4.35a1 1 0 0 0 .34.06c.2.02.48.02.9.02h7.14c.4 0 .67 0 .87-.02.2-.01.28-.03.33-.06l.3.69-.3-.69a.92.92 0 0 0 .38-.32.99.99 0 0 0 .13-.3c.05-.2.1-.46.17-.86l1.09-5.69H4.67Zm13.12 0Zm-.3-.36Z" clip-rule="evenodd"/></svg>
