<svg xmlns="http://www.w3.org/2000/svg" viewBox="0 0 20 20"><path fill-rule="evenodd" d="M9.6 4.98c-1.22.38-2.49.77-3.77.77-.85 0-1.6-.09-2.25-.21a19.1 19.1 0 0 0-1.13-.19c0 .02-.02.07-.02.15l-.01.82v8.96a3.45 3.45 0 0 0 0 .1.8.8 0 0 0 .04.05c.43.2 1.43.49 3.37.49a14.17 14.17 0 0 0 4.57-.9c1.22-.38 2.49-.77 3.77-.77.85 0 1.6.09 2.25.21a19.08 19.08 0 0 0 1.13.19c0-.02.02-.07.02-.15l.01-.82V4.72a3.24 3.24 0 0 0 0-.1.73.73 0 0 0-.04-.05 8.74 8.74 0 0 0-3.37-.49c-1.55 0-2.91.39-4.26.8l-.31.1Zm7.99 9.67ZM2.41 5.35Zm7.06-1.9c1.36-.42 2.9-.87 4.7-.87 2.11 0 3.32.33 4 .62a1.31 1.31 0 0 1 .42.3 1.67 1.67 0 0 1 .4.6c.1.26.1.45.1.6v9c0 .36 0 .66-.02.9-.02.23-.05.52-.2.78-.09.15-.2.3-.36.43-.16.13-.32.21-.48.27-.3.1-.63.07-.86.04l-1.01-.18h-.02c-.56-.11-1.23-.19-1.97-.19-1.05 0-2.1.33-3.38.72l-.26.08c-1.36.42-2.9.87-4.7.87-2.11 0-3.32-.33-4-.62l-.2-.11a1.6 1.6 0 0 1-.45-.47c-.05-.07-.12-.2-.17-.32a1.6 1.6 0 0 1-.1-.6v-9c0-.36 0-.66.02-.9.02-.23.05-.52.2-.78.09-.15.2-.3.36-.43.16-.14.32-.21.48-.27.3-.1.63-.07.86-.04.26.03.6.1 1.01.18h.02c.56.11 1.23.19 1.97.19 1.05 0 2.1-.33 3.38-.72l.26-.08ZM15 6.75c.41 0 .75.34.75.75v3.33a.75.75 0 0 1-1.5 0V7.5c0-.41.34-.75.75-.75Zm-5 1.92a1.33 1.33 0 1 0 0 2.66 1.33 1.33 0 0 0 0-2.66ZM7.17 10a2.83 2.83 0 1 1 5.66 0 2.83 2.83 0 0 1-5.66 0ZM5 8.42c.41 0 .75.33.75.75v3.33a.75.75 0 0 1-1.5 0V9.17c0-.42.34-.75.75-.75Z" clip-rule="evenodd"/></svg>
