<svg xmlns="http://www.w3.org/2000/svg" viewBox="0 0 20 20"><path fill-rule="evenodd" d="M7.33.92H7.3c-.67 0-1.22 0-1.67.03-.46.04-.88.12-1.27.32-.61.31-1.11.81-1.42 1.42-.2.4-.28.81-.32 1.27-.04.45-.04 1-.04 1.68V14.36c0 .68 0 1.23.04 1.68.04.46.12.88.32 1.27.3.61.8 1.1 1.42 1.42.39.2.8.28 1.27.32.45.03 1 .03 1.67.03H10a.75.75 0 1 0 0-1.5H7.33c-.7 0-1.2 0-1.58-.03a1.88 1.88 0 0 1-.71-.16c-.33-.17-.6-.43-.77-.76l-.66.34.66-.34a1.88 1.88 0 0 1-.16-.72 21.6 21.6 0 0 1-.03-1.58V5.67c0-.72 0-1.2.03-1.58.04-.37.1-.57.16-.72.17-.33.44-.6.77-.76.14-.08.34-.13.71-.16.38-.03.87-.03 1.58-.03h5.34c.7 0 1.2 0 1.58.03.37.03.57.08.71.16.33.17.6.43.77.76.07.15.12.35.16.72.03.38.03.86.03 1.58v4.75a.75.75 0 0 0 1.5 0V5.64c0-.68 0-1.23-.04-1.68a3.33 3.33 0 0 0-.32-1.27c-.3-.61-.8-1.1-1.42-1.42-.39-.2-.8-.28-1.27-.32-.45-.03-1-.03-1.67-.03H7.33Zm-.66 4.16a.75.75 0 0 0 0 1.5h6.66a.75.75 0 1 0 0-1.5H6.67Zm0 3.34a.75.75 0 0 0 0 1.5h5a.75.75 0 0 0 0-1.5h-5Zm0 3.33a.75.75 0 0 0 0 1.5h1.66a.75.75 0 0 0 0-1.5H6.67Zm11.36 2.53a.75.75 0 1 0-1.06-1.06l-3.22 3.22-1.14-1.14a.75.75 0 0 0-1.06 1.06l1.67 1.67c.3.3.77.3 1.06 0l3.75-3.75Z" clip-rule="evenodd"/></svg>
