<svg xmlns="http://www.w3.org/2000/svg" viewBox="0 0 20 20"><path fill-rule="evenodd" d="M6.5 1.75h-.03c-.67 0-1.23 0-1.67.04-.47.03-.88.12-1.28.31-.6.32-1.1.81-1.42 1.42-.2.4-.28.81-.31 1.28-.04.44-.04 1-.04 1.67V11.28c0 .56 0 1.01.03 1.39.02.39.08.74.22 1.07.33.8.96 1.43 1.76 1.76.33.14.68.2 1.07.22.38.03.83.03 1.4.03h.02c.44 0 .54 0 .63.02.14.04.26.1.37.2.07.05.13.13.4.48l1.22 1.62.01.02c.08.1.16.22.25.31.09.1.23.24.45.33.27.1.57.1.84 0 .22-.09.36-.23.45-.33l.25-.31.01-.02 1.22-1.62c.27-.35.33-.43.4-.49.1-.09.23-.15.37-.19.09-.02.19-.02.63-.02h.03c.56 0 1.01 0 1.39-.03.39-.02.74-.08 1.07-.22.8-.33 1.43-.96 1.76-1.76.14-.33.2-.68.22-1.07.03-.38.03-.83.03-1.4v-4.8c0-.67 0-1.23-.04-1.67a3.33 3.33 0 0 0-.31-1.28c-.32-.6-.81-1.1-1.42-1.42-.4-.2-.81-.28-1.28-.31-.44-.04-1-.04-1.67-.04H6.5Zm-2.3 1.7c.15-.08.35-.14.72-.17.38-.03.87-.03 1.58-.03h7c.71 0 1.2 0 1.58.03.37.03.57.09.71.16.33.17.6.44.77.77.07.14.13.34.16.7.03.39.03.88.03 1.59v4.75c0 .6 0 1-.02 1.32a1.9 1.9 0 0 1-.11.6c-.18.43-.52.77-.95.95-.12.05-.3.09-.6.1-.32.03-.73.03-1.32.03h-.07c-.34 0-.63 0-.9.06-.37.1-.7.26-1 .5-.21.18-.39.41-.59.69l-.04.05L10 17.08l-1.15-1.53-.04-.05c-.2-.28-.38-.5-.6-.69a2.42 2.42 0 0 0-.99-.5 3.93 3.93 0 0 0-.9-.06h-.07c-.6 0-1 0-1.32-.02a1.9 1.9 0 0 1-.6-.11 1.75 1.75 0 0 1-.95-.95 1.9 1.9 0 0 1-.1-.6c-.03-.32-.03-.73-.03-1.32V6.5c0-.71 0-1.2.03-1.58.03-.37.09-.57.16-.71.17-.33.44-.6.77-.77ZM9.76 17.4Zm.5 0Z" clip-rule="evenodd"/></svg>
