<svg xmlns="http://www.w3.org/2000/svg" viewBox="0 0 20 20"><path fill-rule="evenodd" d="M9.33.92H9.3c-.44 0-.81 0-1.12.02-.33.03-.64.09-.94.24-.46.23-.83.6-1.06 1.06-.15.3-.21.61-.24.94-.02.3-.02.68-.02 1.12v1.62H4.3c-.44 0-.81 0-1.12.02-.33.03-.64.09-.94.24-.46.23-.83.6-1.06 1.06-.15.3-.21.61-.24.94-.02.3-.02.68-.02 1.12v6.4c0 .44 0 .81.02 1.12.03.33.09.64.24.94.23.46.6.83 1.06 1.06.3.15.61.21.94.24.3.02.68.02 1.12.02h6.4c.44 0 .81 0 1.12-.02.33-.03.64-.09.94-.24.46-.23.83-.6 1.06-1.06.15-.3.21-.61.24-.94.02-.3.02-.68.02-1.12v-1.62h1.62c.44 0 .81 0 1.12-.02.33-.03.64-.09.94-.24.46-.23.83-.6 1.06-1.06.15-.3.21-.61.24-.94.02-.3.02-.68.02-1.12V4.3c0-.44 0-.81-.02-1.12a2.46 2.46 0 0 0-.24-.94c-.23-.46-.6-.83-1.06-1.06-.3-.15-.61-.21-.94-.24-.3-.02-.68-.02-1.12-.02H9.33Zm-5 6.5h6.34c.48 0 .79 0 1.03.02.23.02.33.05.38.08.18.08.32.22.4.4.03.05.06.15.08.38.02.24.02.55.02 1.03v6.34c0 .48 0 .79-.02 1.03-.02.23-.05.33-.08.38a.92.92 0 0 1-.4.4c-.05.03-.15.06-.38.08-.24.02-.55.02-1.03.02H4.33c-.48 0-.79 0-1.03-.02a1.02 1.02 0 0 1-.38-.08.92.92 0 0 1-.4-.4 1.02 1.02 0 0 1-.08-.38c-.02-.24-.02-.55-.02-1.03V9.33c0-.48 0-.79.02-1.03.02-.23.05-.33.08-.38a.92.92 0 0 1 .4-.4c.05-.03.15-.06.38-.08.24-.02.55-.02 1.03-.02Zm9.75 1.91v3.25h1.59c.48 0 .79 0 1.03-.02.23-.02.33-.05.38-.08a.92.92 0 0 0 .4-.4c.03-.05.06-.15.08-.38.02-.24.02-.55.02-1.03V4.33c0-.48 0-.79-.02-1.03a1.02 1.02 0 0 0-.08-.38.92.92 0 0 0-.4-.4 1.02 1.02 0 0 0-.38-.08c-.24-.02-.55-.02-1.03-.02H9.33c-.48 0-.79 0-1.03.02-.23.02-.33.05-.38.08a.92.92 0 0 0-.4.4c-.03.05-.06.15-.08.38-.02.24-.02.55-.02 1.03v1.59h3.28c.44 0 .81 0 1.12.02.33.03.64.09.94.24.46.23.83.6 1.06 1.06.15.3.21.61.24.94.02.3.02.68.02 1.12v.03Z" clip-rule="evenodd"/></svg>
