<svg viewBox="0 0 16 16" xmlns="http://www.w3.org/2000/svg"><path d="M7.33332 12C7.33332 12.7333 6.73332 13.3333 5.99999 13.3333C5.26666 13.3333 4.66666 12.7333 4.66666 12C4.66666 11.2667 5.26666 10.6667 5.99999 10.6667C6.73332 10.6667 7.33332 11.2667 7.33332 12ZM5.99999 6.66667C5.26666 6.66667 4.66666 7.26667 4.66666 8C4.66666 8.73334 5.26666 9.33334 5.99999 9.33334C6.73332 9.33334 7.33332 8.73334 7.33332 8C7.33332 7.26667 6.73332 6.66667 5.99999 6.66667ZM5.99999 2.66667C5.26666 2.66667 4.66666 3.26667 4.66666 4.00001C4.66666 4.73334 5.26666 5.33334 5.99999 5.33334C6.73332 5.33334 7.33332 4.73334 7.33332 4.00001C7.33332 3.26667 6.73332 2.66667 5.99999 2.66667ZM9.99999 5.33334C10.7333 5.33334 11.3333 4.73334 11.3333 4.00001C11.3333 3.26667 10.7333 2.66667 9.99999 2.66667C9.26666 2.66667 8.66666 3.26667 8.66666 4.00001C8.66666 4.73334 9.26666 5.33334 9.99999 5.33334ZM9.99999 6.66667C9.26666 6.66667 8.66666 7.26667 8.66666 8C8.66666 8.73334 9.26666 9.33334 9.99999 9.33334C10.7333 9.33334 11.3333 8.73334 11.3333 8C11.3333 7.26667 10.7333 6.66667 9.99999 6.66667ZM9.99999 10.6667C9.26666 10.6667 8.66666 11.2667 8.66666 12C8.66666 12.7333 9.26666 13.3333 9.99999 13.3333C10.7333 13.3333 11.3333 12.7333 11.3333 12C11.3333 11.2667 10.7333 10.6667 9.99999 10.6667Z"/></svg>
