<svg xmlns="http://www.w3.org/2000/svg" viewBox="0 0 20 20"><path fill-rule="evenodd" d="M5.67 1.75h-.03c-.68 0-1.23 0-1.68.04-.46.03-.88.12-1.27.31-.61.32-1.1.81-1.42 1.42-.2.4-.28.81-.32 1.28-.03.44-.03 1-.03 1.67V13.53c0 .67 0 1.23.03 1.67.04.47.12.88.32 1.28.31.6.81 1.1 1.42 1.42.4.2.81.28 1.27.31.45.04 1 .04 1.68.04H14.36c.68 0 1.23 0 1.68-.04.46-.03.88-.12 1.27-.31.61-.32 1.1-.81 1.42-1.42.2-.4.28-.81.32-1.28.03-.44.03-1 .03-1.67V6.47c0-.67 0-1.23-.03-1.67a3.33 3.33 0 0 0-.32-1.28c-.31-.6-.81-1.1-1.42-1.42-.4-.2-.81-.28-1.27-.31-.45-.04-1-.04-1.68-.04H5.67Zm-2.3 1.7c.15-.08.35-.14.72-.17.38-.03.86-.03 1.58-.03h8.66c.72 0 1.2 0 1.58.03.37.03.57.09.72.16.33.17.6.44.76.77.08.14.13.34.16.7.03.39.03.88.03 1.59v4.19l-1.1-1.11-.02-.02c-.15-.15-.3-.3-.43-.4a1.6 1.6 0 0 0-.54-.32c-.32-.1-.66-.1-.98 0-.23.07-.4.2-.54.32a7.6 7.6 0 0 0-.43.4l-.01.02-1.86 1.86-.2-.2-.01-.01c-.15-.15-.3-.3-.43-.4a1.6 1.6 0 0 0-.54-.32c-.32-.1-.66-.1-.98 0-.23.07-.4.2-.54.32-.13.1-.28.25-.43.4l-.01.02-5.26 5.25a1.75 1.75 0 0 1-.66-.7 1.88 1.88 0 0 1-.16-.72 21.6 21.6 0 0 1-.03-1.58v-7c0-.71 0-1.2.03-1.58.03-.37.08-.57.16-.71.17-.33.43-.6.76-.77Zm12.04 7.19 2.17 2.17v.69c0 .71 0 1.2-.03 1.58-.03.37-.08.57-.16.71-.15.3-.38.54-.66.71l-4-4 1.86-1.86a6.88 6.88 0 0 1 .42-.38l.05.04.35.34Zm-4.27 2.4 3.72 3.7-.53.01H5.14L9.6 12.3a6.86 6.86 0 0 1 .42-.38l.05.04c.08.06.18.16.35.34l.73.72ZM5.75 7.5a.92.92 0 1 1 1.83 0 .92.92 0 0 1-1.83 0Zm.92-2.42a2.42 2.42 0 1 0 0 4.84 2.42 2.42 0 0 0 0-4.84Z" clip-rule="evenodd"/></svg>
