<svg xmlns="http://www.w3.org/2000/svg" viewBox="0 0 20 20"><path fill-rule="evenodd" d="M6.67 3.25c.82 0 1.08 0 1.28.06.6.16 1.08.63 1.24 1.24.05.2.06.46.06 1.28a.75.75 0 0 0 1.5 0v-.1c0-.67 0-1.16-.11-1.57-.3-1.12-1.18-2-2.3-2.3-.41-.11-.9-.11-1.57-.11h-.55c-.56 0-1.01 0-1.39.03-.39.02-.74.08-1.07.22-.8.33-1.43.96-1.76 1.76-.14.33-.2.68-.22 1.07-.03.38-.03.83-.03 1.4v7.55c0 .56 0 1.01.03 1.39.02.39.08.74.22 1.07.33.8.96 1.43 1.76 1.76.33.14.68.2 1.07.22.38.03.83.03 1.4.03h.54c.67 0 1.16 0 1.57-.11 1.12-.3 2-1.18 2.3-2.3.11-.41.11-.9.11-1.57v-.1a.75.75 0 0 0-1.5 0c0 .82 0 1.08-.06 1.28-.16.6-.63 1.08-1.24 1.24-.2.05-.46.06-1.28.06h-.42c-.6 0-1 0-1.32-.02a1.9 1.9 0 0 1-.6-.11 1.75 1.75 0 0 1-.95-.95 1.9 1.9 0 0 1-.1-.6c-.03-.32-.03-.73-.03-1.32v-7.5c0-.6 0-1 .02-1.32.02-.3.06-.48.11-.6.18-.43.52-.77.95-.95.12-.05.3-.09.6-.1.32-.03.73-.03 1.32-.03h.42Zm7.2 2.05a.75.75 0 0 0-1.07 1.06l2.89 2.89H7.5a.75.75 0 0 0 0 1.5h8.19l-2.89 2.89a.75.75 0 0 0 1.06 1.06l4.17-4.17c.3-.3.3-.77 0-1.06L13.86 5.3Z" clip-rule="evenodd"/></svg>
