<svg xmlns="http://www.w3.org/2000/svg" viewBox="0 0 20 20"><path fill-rule="evenodd" d="M3.03 1.97a.75.75 0 0 0-1.06 1.06l2.48 2.48a14.58 14.58 0 0 0-3.07 3.5l-.02.02c-.1.16-.22.35-.28.62-.05.21-.05.49 0 .7.06.27.18.46.28.61l.02.03c.5.78 1.47 2.16 2.9 3.36A8.9 8.9 0 0 0 10 16.58c1.65 0 3.1-.5 4.3-1.22l2.67 2.67a.75.75 0 0 0 1.06-1.06L15 13.94a.75.75 0 0 0-.14-.14l-2.56-2.56L8.76 7.7 6.2 5.13a.75.75 0 0 0-.12-.12L3.03 1.97ZM2.65 9.8c.48-.76 1.46-2.12 2.87-3.22L7.23 8.3a3.25 3.25 0 0 0 4.47 4.47l1.5 1.5c-.95.5-2.01.82-3.2.82-1.9 0-3.5-.83-4.75-1.89a13.2 13.2 0 0 1-2.7-3.16.34.34 0 0 1 0-.05l.03-.07.07-.1Zm5.6.2c0-.2.04-.4.1-.59l2.24 2.24A1.75 1.75 0 0 1 8.25 10Zm.81-5.01c.3-.05.62-.07.94-.07 1.9 0 3.5.83 4.76 1.89a13.2 13.2 0 0 1 2.59 3l.07.1.03.06a.36.36 0 0 1 0 .05l-.03.07-.07.1c-.24.38-.6.9-1.08 1.48a.75.75 0 0 0 1.15.96c.53-.63.93-1.22 1.2-1.63l.02-.03c.1-.16.22-.35.28-.62l-.7-.15.7.15c.05-.21.05-.49 0-.7-.06-.27-.18-.46-.28-.61L18.62 9c-.5-.78-1.47-2.16-2.9-3.36A8.9 8.9 0 0 0 10 3.42c-.4 0-.78.03-1.16.08A.75.75 0 0 0 9.06 5Z" clip-rule="evenodd"/></svg>
