<svg xmlns="http://www.w3.org/2000/svg" viewBox="0 0 20 20"><path fill-rule="evenodd" d="M2.65 9.8a13.2 13.2 0 0 1 2.6-3A7.42 7.42 0 0 1 10 4.93c1.9 0 3.5.83 4.76 1.89a13.2 13.2 0 0 1 2.69 3.16.36.36 0 0 1 0 .05l-.03.06a13.19 13.19 0 0 1-2.66 3.11A7.42 7.42 0 0 1 10 15.1c-1.9 0-3.5-.84-4.75-1.9a13.19 13.19 0 0 1-2.7-3.16.34.34 0 0 1 0-.05 7.85 7.85 0 0 1 .1-.16ZM10 3.43a8.9 8.9 0 0 0-5.72 2.23 14.69 14.69 0 0 0-2.9 3.36l-.02.03c-.1.15-.22.34-.28.6-.05.22-.05.5 0 .71.06.27.18.46.28.61l.02.03c.5.78 1.47 2.16 2.9 3.36A8.9 8.9 0 0 0 10 16.58a8.9 8.9 0 0 0 5.72-2.23 14.69 14.69 0 0 0 2.9-3.36l.02-.03c.1-.15.22-.34.28-.6.05-.22.05-.5 0-.71a1.87 1.87 0 0 0-.28-.61L18.62 9c-.5-.78-1.47-2.16-2.9-3.36A8.9 8.9 0 0 0 10 3.42ZM8.25 10a1.75 1.75 0 1 1 3.5 0 1.75 1.75 0 0 1-3.5 0ZM10 6.75a3.25 3.25 0 1 0 0 6.5 3.25 3.25 0 0 0 0-6.5Z" clip-rule="evenodd"/></svg>
