<svg xmlns="http://www.w3.org/2000/svg" viewBox="0 0 20 20"><path fill-rule="evenodd" d="M7.4 2.94c-.08-.03-.12-.02-.13-.02-.7.27-1.34.64-1.92 1.09 0 0-.04.03-.06.11a.95.95 0 0 0 0 .36A3.27 3.27 0 0 1 2.63 8.2a7.6 7.6 0 0 0-.16 2.74 3.25 3.25 0 0 1 2.68 4.31c-.06.17-.08.32-.07.43.01.1.04.13.06.14.55.46 1.18.85 1.86 1.14.01.01.05.03.15-.02.11-.04.25-.15.37-.29a3.24 3.24 0 0 1 4.96 0c.12.14.26.25.37.3.1.04.14.02.15.01.68-.29 1.3-.68 1.86-1.14.02-.01.05-.04.06-.14 0-.11-.01-.26-.07-.43a3.25 3.25 0 0 1 2.68-4.31 7.67 7.67 0 0 0-.16-2.74 3.25 3.25 0 0 1-2.66-3.72.95.95 0 0 0 0-.36c-.02-.08-.05-.1-.06-.11a7.57 7.57 0 0 0-1.92-1.09c-.01 0-.05-.01-.14.02-.09.03-.2.1-.32.22a3.24 3.24 0 0 1-4.54 0 .98.98 0 0 0-.32-.22Zm-.67-1.42c.86-.33 1.64.17 2.05.57a1.74 1.74 0 0 0 2.44 0c.41-.4 1.19-.9 2.05-.57.83.33 1.6.76 2.3 1.3.67.53.7 1.37.62 1.9-.02.1-.02.18-.02.28 0 .97.78 1.75 1.75 1.75a.8.8 0 0 1 .76.56 9.08 9.08 0 0 1 .27 4.25c-.1.56-.59.86-1.03.86a1.75 1.75 0 0 0-1.65 2.33c.2.57.33 1.58-.44 2.22a9.09 9.09 0 0 1-2.23 1.37c-.48.21-.96.15-1.35-.02a2.56 2.56 0 0 1-.91-.7 1.74 1.74 0 0 0-2.68 0c-.23.27-.54.54-.91.7-.39.17-.87.23-1.35.02a9.08 9.08 0 0 1-2.23-1.37c-.77-.64-.64-1.65-.44-2.22a1.75 1.75 0 0 0-1.65-2.33c-.44 0-.93-.3-1.03-.86a9.14 9.14 0 0 1 .27-4.25.8.8 0 0 1 .76-.56 1.75 1.75 0 0 0 1.73-2.03c-.08-.53-.05-1.37.62-1.9.7-.54 1.47-.97 2.3-1.3ZM6.33 10a3.67 3.67 0 1 1 7.34 0 3.67 3.67 0 0 1-7.34 0ZM10 7.83a2.17 2.17 0 1 0 0 4.34 2.17 2.17 0 0 0 0-4.34Z" clip-rule="evenodd"/></svg>
