<svg viewBox="0 0 24 24" xmlns="http://www.w3.org/2000/svg"><path d="M11.357 2.339a2.923 2.923 0 0 0-.866.387c-.551.377-6.351 4.843-6.584 5.069A3.825 3.825 0 0 0 2.89 9.468l-.11.352-.011 3.817c-.012 4.195-.017 4.105.233 4.863a4.712 4.712 0 0 0 3.041 3.013c.738.236.507.227 5.997.227 5.612 0 5.271.015 6.071-.265 1.601-.561 2.756-1.93 3.069-3.638.054-.3.061-.833.051-4.18L21.22 9.82l-.11-.352a3.861 3.861 0 0 0-.997-1.656c-.27-.263-6.389-4.96-6.739-5.172-.399-.242-.738-.333-1.294-.346-.336-.008-.573.007-.723.045m1.125 1.53c.255.114 6.326 4.761 6.627 5.072.256.265.427.554.555.939.069.205.074.453.088 3.62.014 3.572-.002 4.031-.157 4.506a3.208 3.208 0 0 1-1.615 1.892c-.58.286-.711.311-1.789.331l-.948.018-.012-2.095-.011-2.096-.149-.301a1.828 1.828 0 0 0-.861-.847l-.27-.128h-3.88l-.27.128a1.828 1.828 0 0 0-.861.847l-.149.301-.011 2.096-.012 2.095-.928-.018c-1.037-.02-1.184-.046-1.729-.308a3.254 3.254 0 0 1-1.695-1.955c-.155-.475-.171-.935-.157-4.486.014-3.147.02-3.395.088-3.6a2.44 2.44 0 0 1 .502-.89c.164-.179 6.116-4.779 6.531-5.047.299-.194.776-.225 1.113-.074m1.18 12.469.098.098v3.804h-3.52v-3.804l.098-.098.098-.098h3.128l.098.098" /></svg>