<svg xmlns="http://www.w3.org/2000/svg" xml:space="preserve" id="Layer_1" x="0" y="0" version="1.1" viewBox="0 0 64 42">
  <style>
    .st1-en{fill:#fff}.st2-en{fill:#cf142b}
  </style>
	<path fill="#00237a" d="M64 36V6L38 21zM61 .8c-.8-.5-1.8-.8-2.9-.8H5.8c-1 0-2 .3-2.9.8L32 17.5 61 .8zM2.9 41.2c.9.5 1.9.8 2.9.8h52.4c1 0 2-.3 2.9-.7L32 24.5 2.9 41.2zM0 6v30l26-15z"/>
	<path d="M27 20.4.1 4.9c-.1.2-.1.5-.1.8V6l26 15 1-.6z" class="st1-en"/>
	-en
	<path d="m37 21.6 26.9 15.6c0-.3.1-.5.1-.8V36L38 21l-1 .6zm26.3 17.5L35 22.7l-3 1.7 29.1 16.8c.9-.5 1.7-1.2 2.2-2.1zM.7 2.9 29 19.3l3-1.7L2.9.8C2 1.3 1.3 2 .7 2.9z" class="st1-en"/>
	<path d="M.7 2.9c-.3.6-.5 1.3-.6 2L27 20.4l2-1.2L.7 2.9zM35 22.7 63.3 39c.3-.6.5-1.2.6-1.9L37 21.6l-2 1.1z" class="st2-en"/>
	<path d="M31 23.9 2 40.6l.9.6L32 24.5l-1-.6zM.7 39.1 29 22.7 26 21 0 36v.3c0 1 .3 1.9.7 2.8zm32.3-21L62 1.4l-.9-.6L32 17.5l1 .6zM63.3 3 35 19.3l3 1.7L64 6v-.3c0-1-.3-1.9-.7-2.7z" class="st1-en"/>
	<path d="M.7 39.1c.3.6.8 1.1 1.3 1.6L31 24l-2-1.2L.7 39.1zM32 21l-1 1.7-1-.5-1 .5 2 1.2 2-1.2z" class="st2-en"/>
	<path d="m31 22.7 1-1.7-2 1.2zM63.3 3c-.3-.6-.8-1.1-1.3-1.6L33 18.1l2 1.2L63.3 3z" class="st2-en"/>
	<path d="m32 21 1-1.7 1 .5 1-.5-2-1.2-2 1.2z" class="st2-en"/>
	<path d="m32 21 2-1.2-1-.5z" class="st2-en"/>
	<path d="M64 16H37V0H27v16H0v10h27v16h10V26h27z" class="st1-en"/>
	<path d="M64 18H35V0h-6v18H0v6h29v18h6V24h29z" class="st2-en"/>
</svg>