<svg xmlns="http://www.w3.org/2000/svg" viewBox="0 0 20 20"><path fill-rule="evenodd" d="M12.5 1.75a.75.75 0 0 0 0 1.5h3.19L10.3 8.64a.75.75 0 1 0 1.06 1.06l5.39-5.39V7.5a.75.75 0 0 0 1.5 0v-5a.75.75 0 0 0-.75-.75h-5Zm-6 1.67h-.03c-.67 0-1.23 0-1.67.03-.47.04-.88.12-1.28.32-.6.31-1.1.81-1.42 1.42-.2.4-.28.81-.31 1.27-.04.45-.04 1-.04 1.68V13.53c0 .67 0 1.23.04 1.67.03.47.12.88.31 1.28l.67-.34-.67.34c.32.6.81 1.1 1.42 1.42.4.2.81.28 1.28.31.44.04 1 .04 1.67.04H11.86c.68 0 1.23 0 1.68-.04.46-.03.88-.12 1.27-.31.61-.32 1.1-.81 1.42-1.42.2-.4.28-.81.32-1.28.03-.44.03-1 .03-1.67v-1.86a.75.75 0 0 0-1.5 0v1.83c0 .71 0 1.2-.03 1.58-.03.37-.08.57-.16.71-.17.33-.43.6-.76.77-.15.07-.35.13-.72.16-.38.03-.86.03-1.58.03H6.5c-.71 0-1.2 0-1.58-.03a1.88 1.88 0 0 1-.71-.16l-.34.67.34-.67c-.33-.17-.6-.44-.77-.77a1.88 1.88 0 0 1-.16-.7 21.6 21.6 0 0 1-.03-1.59V8.17c0-.72 0-1.2.03-1.58.03-.37.09-.57.16-.72.17-.33.44-.6.77-.76.14-.08.34-.13.7-.16.39-.03.88-.03 1.59-.03h1.83a.75.75 0 1 0 0-1.5H6.5Z" clip-rule="evenodd"/></svg>
