<svg xmlns="http://www.w3.org/2000/svg" viewBox="0 0 24 24"><path d="M8.008 4.538c-.359.082-.493.149-2.668 1.334C3.441 6.906 3.371 6.949 3.078 7.24a2.793 2.793 0 0 0-.713 1.153L2.26 8.7l-.011 5.375c-.012 5.816-.019 5.589.197 6.036.285.591 1.094 1.034 1.729.947.345-.046.584-.159 2.101-.989 1.955-1.07 1.983-1.082 2.339-1.082.284.001.29.003 3.058 1.19 1.656.71 2.904 1.222 3.098 1.271a2.827 2.827 0 0 0 1.469-.059c.321-.109 4.083-2.136 4.408-2.375.431-.316.789-.827.987-1.407l.105-.307.011-5.375c.012-5.816.019-5.589-.197-6.036-.302-.627-1.075-1.021-1.804-.922-.322.045-.437.1-2.274 1.104-.849.464-1.648.873-1.775.911a1.009 1.009 0 0 1-.436.04c-.135-.018-1.125-.422-2.944-1.201-1.508-.645-2.84-1.204-2.961-1.241-.304-.092-1.03-.115-1.352-.042m3.685 2.649c1.637.7 2.885 1.212 3.078 1.261a2.835 2.835 0 0 0 1.471-.059c.17-.058 1.04-.506 1.992-1.026.93-.508 1.729-.923 1.776-.923.046 0 .117.03.157.066.07.064.073.281.073 5.299 0 5.185-.001 5.234-.082 5.452-.162.431-.238.484-2.321 1.62-1.075.585-2.004 1.066-2.136 1.104a.995.995 0 0 1-.436.041c-.135-.018-1.125-.422-2.944-1.201-1.508-.645-2.84-1.203-2.961-1.24-.331-.101-.958-.122-1.319-.045-.386.082-.561.168-2.41 1.178-.852.465-1.589.846-1.637.846a.284.284 0 0 1-.161-.066c-.07-.064-.073-.281-.073-5.299V8.963l.086-.229c.155-.415.266-.492 2.274-1.58 2.171-1.175 2.045-1.111 2.253-1.153.36-.074.466-.036 3.32 1.186m-3.492.636a.647.647 0 0 0-.365.345c-.073.143-.076.292-.076 3.568 0 2.318.014 3.455.043 3.531.093.249.438.491.697.491.259 0 .604-.242.697-.491.029-.076.043-1.207.042-3.52-.001-3.22-.005-3.416-.074-3.567a.61.61 0 0 0-.375-.358.77.77 0 0 0-.589.001m7.219 2.437a2.274 2.274 0 0 1-.149.037c-.147.032-.39.251-.457.411-.044.105-.054.765-.053 3.541.001 3.224.005 3.42.074 3.571a.61.61 0 0 0 .375.358c.26.109.597.054.804-.13a.83.83 0 0 0 .151-.228c.069-.151.073-.347.074-3.567.001-2.313-.013-3.444-.042-3.52a.885.885 0 0 0-.357-.391c-.108-.055-.355-.104-.42-.082"/></svg>