<svg viewBox="0 0 20 20" xmlns="http://www.w3.org/2000/svg"><path d="M9.017.985a7.257 7.257 0 0 0-2.254.686 6.836 6.836 0 0 0-1.999 1.427 6.869 6.869 0 0 0-1.427 1.998c-.924 1.894-.988 4.019-.179 6.004.594 1.458 1.595 2.889 3.302 4.721.793.852 3.114 3.147 3.257 3.221.165.086.394.09.55.009.231-.12 3.011-2.912 3.88-3.898 1.703-1.93 2.645-3.52 3.054-5.152.254-1.013.265-2.255.029-3.315-.217-.979-.713-2.026-1.374-2.902-.259-.344-.963-1.047-1.307-1.307-.875-.661-1.922-1.157-2.901-1.374C10.887.934 9.764.884 9.017.985M10.75 2.47c2.168.255 4.07 1.786 4.819 3.88a5.64 5.64 0 0 1 .335 1.962c0 .761-.128 1.406-.426 2.155-.684 1.715-1.864 3.222-4.842 6.183l-.636.633-.769-.767C6.42 13.714 5.27 12.252 4.575 10.6c-.341-.811-.482-1.488-.48-2.306a5.804 5.804 0 0 1 1.697-4.106 5.803 5.803 0 0 1 2.825-1.601 5.793 5.793 0 0 1 2.133-.117M9.421 5.133a4.57 4.57 0 0 0-.838.275c-.686.342-1.307 1.004-1.581 1.685-.195.484-.218.614-.218 1.24 0 .627.023.757.218 1.241.3.745 1.008 1.454 1.757 1.758.448.183.646.217 1.241.217.595 0 .793-.034 1.241-.217.749-.304 1.453-1.009 1.758-1.758.183-.448.217-.646.217-1.241 0-.594-.034-.792-.217-1.24-.302-.742-1.013-1.458-1.743-1.752-.445-.181-.614-.213-1.156-.226a5.407 5.407 0 0 0-.679.018M10.5 6.655c.26.072.515.227.733.445.35.35.508.734.508 1.233 0 .5-.158.884-.508 1.234a1.63 1.63 0 0 1-1.233.508c-.5 0-.884-.159-1.233-.508a1.63 1.63 0 0 1-.508-1.234c0-.499.158-.883.508-1.233.466-.467 1.082-.625 1.733-.445"/></svg>