<svg xmlns="http://www.w3.org/2000/svg" viewBox="0 0 20 20"><path fill-rule="evenodd" d="m9.63 11.43 6.7-6.7-4.66 11.95-2.04-5.25Zm5.64-7.76-6.7 6.7-5.25-2.04 11.95-4.66Zm2.7-2.38c-.3-.1-.59-.03-.74.02l-.56.2-.03.01-14.07 5.5h-.03a8.1 8.1 0 0 0-.6.25c-.14.07-.42.22-.58.52-.17.34-.17.74 0 1.08.16.3.44.45.59.52.16.08.37.16.6.25l.02.01 5.6 2.18 2.18 5.6v.02l.26.6c.07.15.22.43.52.59.34.17.74.17 1.07 0 .3-.16.46-.44.53-.58l.25-.6v-.03l5.5-14.07v-.03c.09-.2.16-.4.21-.56.04-.15.12-.44.02-.74a1.17 1.17 0 0 0-.74-.74Z" clip-rule="evenodd"/></svg>
