<svg xmlns="http://www.w3.org/2000/svg" viewBox="0 0 20 20"><path fill-rule="evenodd" d="M2.42 10a7.58 7.58 0 1 1 15.16 0 7.58 7.58 0 0 1-15.16 0ZM10 .92a9.08 9.08 0 1 0 0 18.16A9.08 9.08 0 0 0 10 .92Zm-.95 5.9a1.75 1.75 0 0 1 2.63 1.51c0 .44-.33.87-.91 1.25a5.12 5.12 0 0 1-1.06.54H9.7a.75.75 0 0 0 .47 1.42l-.24-.7.24.7h.01l.03-.01a3.96 3.96 0 0 0 .42-.17c.26-.11.61-.29.97-.53.67-.44 1.58-1.26 1.58-2.5h-.75.75a3.25 3.25 0 0 0-6.31-1.08.75.75 0 0 0 1.41.5c.14-.4.41-.72.77-.93Zm.95 6.6a.75.75 0 0 0 0 1.5.75.75 0 0 0 0-1.5Z" clip-rule="evenodd"/></svg>
