<svg xmlns="http://www.w3.org/2000/svg" viewBox="0 0 24 24"><path d="M14.036 4.338c-.476.131-.905.501-1.128.972l-.128.27-.02 1.014c-.02 1.005-.021 1.014-.114 1.09-.088.07-.171.076-1.121.076-1.509 0-2.236.101-3.311.459C4.936 9.311 2.6 12.281 2.282 15.76c-.023.253-.041 1.225-.041 2.16.001 1.57.006 1.712.075 1.86.176.38.581.558.951.417.179-.067.261-.161 1.021-1.168.394-.523.838-1.072.985-1.22a5.212 5.212 0 0 1 3.264-1.529c.244-.022 1.247-.039 2.229-.04 1.698 0 1.79.004 1.88.076.093.076.094.084.114 1.093l.02 1.016.149.3c.184.373.485.669.861.847.253.12.298.128.712.128.431 0 .45-.004.747-.15.352-.174.169.011 3.964-4.024 2.55-2.712 2.542-2.701 2.638-3.26a1.4 1.4 0 0 0 0-.532c-.098-.568-.033-.49-3.255-3.913-1.804-1.916-3.036-3.194-3.15-3.266-.394-.25-.969-.339-1.41-.217m.543 1.447c.035.014 1.351 1.391 2.923 3.061 2.447 2.599 2.858 3.052 2.858 3.153 0 .1-.412.555-2.861 3.157-1.573 1.671-2.897 3.051-2.942 3.065-.104.033-.269-.074-.296-.192a15.906 15.906 0 0 1-.03-1.029l-.011-.94-.128-.27a1.828 1.828 0 0 0-.847-.861l-.301-.149h-2.382c-2.322 0-2.393.002-2.832.091a6.465 6.465 0 0 0-1.71.587c-.801.394-1.511.926-2.025 1.518l-.246.283.022-.82c.037-1.354.245-2.185.831-3.316.958-1.847 2.776-3.244 4.799-3.685.642-.14.926-.165 2.241-.191l1.302-.027.301-.149c.373-.184.669-.485.847-.861l.128-.27.02-1.014c.02-1.005.021-1.014.114-1.09.103-.083.127-.088.225-.051"/></svg>