<svg viewBox="0 0 24 24" xmlns="http://www.w3.org/2000/svg"><path d="M16.082 2.282c-1.821.249-3.098 1.966-2.787 3.748.036.204.065.378.065.387 0 .014-4.466 3.06-4.624 3.154-.025.015-.15-.055-.279-.155a3.784 3.784 0 0 0-1.137-.561c-.367-.1-1.28-.101-1.64-.002a3.32 3.32 0 0 0-2.326 2.332c-.12.443-.12 1.187 0 1.63.25.922.864 1.673 1.706 2.088.536.264.78.317 1.44.316.462 0 .615-.016.878-.092.384-.11.852-.348 1.117-.567.195-.161.196-.161.303-.091l2.339 1.586c2.124 1.443 2.229 1.521 2.208 1.62-.091.424-.118.857-.073 1.194.107.802.434 1.445 1.015 1.991.638.599 1.337.877 2.213.877.642 0 1.131-.134 1.691-.463.295-.173.91-.788 1.083-1.083.329-.56.463-1.049.463-1.691 0-.864-.277-1.572-.856-2.192-.657-.703-1.422-1.036-2.381-1.036-.865 0-1.581.274-2.184.836l-.183.171-2.277-1.545a749.775 749.775 0 0 1-2.291-1.557c-.008-.008.027-.163.078-.345.131-.473.131-1.193-.001-1.667-.078-.28-.084-.341-.038-.368.031-.018 1.062-.717 2.293-1.553l2.236-1.521.227.209c.58.531 1.307.805 2.14.805.642 0 1.131-.134 1.691-.463.295-.173.91-.788 1.083-1.083.329-.56.463-1.049.463-1.691 0-.506-.052-.777-.233-1.226a3.348 3.348 0 0 0-1.628-1.713c-.515-.24-1.246-.354-1.794-.279m1.172 1.651c.363.18.662.485.838.857.12.253.128.298.128.71s-.008.457-.128.71a1.828 1.828 0 0 1-.847.861c-.293.145-.313.149-.745.149s-.452-.004-.745-.149a1.828 1.828 0 0 1-.847-.861c-.12-.253-.128-.298-.128-.71s.008-.457.128-.71c.159-.337.462-.662.768-.825.32-.17.483-.204.915-.189.332.012.402.028.663.157m-10.15 6.433c.457.169.847.547 1.024.994.125.315.125.965 0 1.28a1.824 1.824 0 0 1-1.044 1.007c-.315.123-.853.123-1.168 0-.49-.193-.872-.562-1.04-1.007a1.97 1.97 0 0 1-.059-1.079 1.743 1.743 0 0 1 2.287-1.195m10.15 6.567c.363.18.662.485.838.857.12.253.128.298.128.71s-.008.457-.128.71a1.828 1.828 0 0 1-.847.861c-.293.145-.313.149-.745.149s-.452-.004-.745-.149a1.828 1.828 0 0 1-.847-.861c-.12-.253-.128-.298-.128-.71s.008-.457.128-.71c.159-.337.462-.662.768-.825.32-.17.483-.204.915-.189.332.012.402.028.663.157"/></svg>