<svg xmlns="http://www.w3.org/2000/svg" viewBox="0 0 20 20"><path fill-rule="evenodd" d="M6.11 3.47a.75.75 0 0 0-.81.17l-2.5 2.5A.75.75 0 0 0 3.86 7.2l1.22-1.22v9.85a.75.75 0 0 0 1.5 0V5.98L7.8 7.2a.75.75 0 0 0 1.06-1.06l-2.5-2.5a.75.75 0 0 0-.25-.17Z" clip-rule="evenodd"/><path fill="#69737B" fill-rule="evenodd" d="M14.92 4.17a.75.75 0 0 0-1.5 0v9.85L12.2 12.8a.75.75 0 0 0-1.06 1.06l2.5 2.5a.75.75 0 0 0 .52.22h.01a.75.75 0 0 0 .53-.22l2.5-2.5a.75.75 0 0 0-1.06-1.06l-1.22 1.22V4.17Z" clip-rule="evenodd"/></svg>
