<svg viewBox="0 0 20 20" xmlns="http://www.w3.org/2000/svg"><path d="M9.773 1.469a1.115 1.115 0 0 0-.611.359c-.135.148-.298.451-.934 1.734a452.56 452.56 0 0 0-1.03 2.092c-.248.513-.265.539-.371.558-.06.011-1.089.163-2.285.338-1.469.214-2.237.34-2.367.388a1.16 1.16 0 0 0-.679.595c-.066.126-.079.199-.079.45 0 .493.038.552.977 1.486.434.433 1.205 1.19 1.713 1.684l.923.897-.369 2.117c-.327 1.875-.369 2.164-.373 2.533-.004.377.003.432.075.576.106.214.316.425.52.522.23.109.61.131.865.051.103-.032 1.097-.537 2.208-1.121A118.521 118.521 0 0 1 10 15.667c.013 0 .933.477 2.044 1.061s2.105 1.089 2.208 1.121c.252.079.635.058.858-.048.203-.097.424-.317.527-.524.072-.145.079-.2.075-.577-.004-.369-.046-.658-.373-2.533l-.369-2.117.94-.914c.517-.503 1.288-1.26 1.713-1.684.92-.915.96-.977.96-1.469 0-.251-.013-.324-.079-.45a1.16 1.16 0 0 0-.679-.595c-.13-.048-.898-.174-2.367-.388a398.032 398.032 0 0 1-2.285-.338c-.107-.02-.123-.045-.421-.658-.17-.35-.634-1.293-1.031-2.094-.589-1.188-.752-1.489-.884-1.633a1.09 1.09 0 0 0-.637-.36.794.794 0 0 0-.427.002m1.163 3.786c.636 1.291.954 1.899 1.045 2.003.167.19.334.295.576.359.155.041 3.994.616 4.115.616.019 0 .029.012.022.026-.006.014-.626.623-1.377 1.353-1.581 1.535-1.627 1.583-1.742 1.805-.168.322-.155.477.234 2.725a85.15 85.15 0 0 1 .332 1.991c-.007 0-.831-.429-1.83-.954-.999-.526-1.879-.977-1.955-1.003a1.383 1.383 0 0 0-.714.001c-.078.027-.961.479-1.961 1.005a75.195 75.195 0 0 1-1.828.946c-.004-.006.141-.859.323-1.895.276-1.577.331-1.945.335-2.266.005-.358 0-.395-.084-.55-.121-.225-.147-.253-1.727-1.788a99.768 99.768 0 0 1-1.394-1.37c-.007-.014.003-.026.022-.026.121 0 3.96-.575 4.115-.616.242-.064.409-.169.576-.359.091-.104.409-.713 1.045-2.004.503-1.02.924-1.854.936-1.854.012 0 .433.835.936 1.855"/></svg>