<svg xmlns="http://www.w3.org/2000/svg" viewBox="0 0 20 20"><path fill-rule="evenodd" d="M2.42 10a7.58 7.58 0 1 1 13.3 4.98 4.08 4.08 0 0 0-3.22-1.56h-5c-1.3 0-2.47.61-3.22 1.56A7.55 7.55 0 0 1 2.42 10Zm16.66 0A9.06 9.06 0 0 1 10 19.08 9.05 9.05 0 0 1 .92 10a9.08 9.08 0 1 1 18.16 0Zm-6.58 4.92c.87 0 1.65.43 2.12 1.1a7.55 7.55 0 0 1-9.24 0 2.58 2.58 0 0 1 2.12-1.1h5Zm-5.08-7a2.58 2.58 0 1 1 5.16 0 2.58 2.58 0 0 1-5.16 0ZM10 3.83A4.08 4.08 0 1 0 10 12a4.08 4.08 0 0 0 0-8.17Z" clip-rule="evenodd"/></svg>
