<svg xmlns="http://www.w3.org/2000/svg" viewBox="0 0 20 20"><path fill-rule="evenodd" d="M7 6.25a3 3 0 1 1 6 0 3 3 0 0 1-6 0Zm3-4.5a4.5 4.5 0 1 0 0 9 4.5 4.5 0 0 0 0-9ZM4.11 16.21a7.37 7.37 0 0 1 12.1.46.27.27 0 0 1-.03.05 6.3 6.3 0 0 1-.7.03H4.52a6.3 6.3 0 0 1-.7-.03.28.28 0 0 1-.03-.05s0-.02.02-.03c.05-.1.13-.2.3-.43Zm12.1.5Zm-12.42 0ZM10 11.76a8.87 8.87 0 0 0-7.09 3.55l-.02.03c-.14.19-.29.39-.4.57-.12.23-.21.48-.2.8 0 .25.08.48.17.67.1.19.24.39.43.54.26.2.55.28.8.31a7 7 0 0 0 .8.03H15.5a7 7 0 0 0 .8-.03c.25-.03.54-.1.8-.3.2-.16.34-.36.43-.55a1.52 1.52 0 0 0-.04-1.46c-.1-.2-.25-.4-.4-.58l-.01-.03A8.87 8.87 0 0 0 10 11.75Z" clip-rule="evenodd"/></svg>
