<svg viewBox="0 0 24 24" xmlns="http://www.w3.org/2000/svg"><path d="M4.656 2.28c-.924.127-1.716.688-2.112 1.497-.287.586-.284.554-.284 2.983 0 2.174 0 2.181.094 2.48.28.899.931 1.582 1.781 1.87l.325.11 2.165.012c2.443.013 2.506.007 3.07-.269a2.642 2.642 0 0 0 1.294-1.317c.249-.534.256-.614.243-3.021L11.22 4.46l-.11-.325a2.808 2.808 0 0 0-1.849-1.771l-.321-.099-2.02-.009c-1.111-.005-2.13.006-2.264.024m10.484.002c-1.016.125-1.916.867-2.25 1.853l-.11.325-.012 2.187c-.012 2.425-.01 2.457.246 3.006A2.646 2.646 0 0 0 14.3 10.96c.578.283.595.285 3.053.272l2.187-.012.325-.11c.85-.288 1.501-.971 1.781-1.87.094-.299.094-.306.094-2.48 0-1.992-.006-2.202-.073-2.44a2.792 2.792 0 0 0-1.465-1.782c-.542-.268-.564-.27-2.782-.281-1.1-.005-2.126.006-2.28.025m-6.108 1.59c.265.141.475.353.597.602l.111.226v4.08l-.105.223a1.287 1.287 0 0 1-.632.632l-.223.105H4.7l-.226-.111a1.382 1.382 0 0 1-.602-.597c-.092-.172-.092-.174-.104-2.192-.009-1.435.001-2.066.033-2.18.07-.245.27-.53.465-.664.345-.237.289-.232 2.534-.224l2.06.008.172.092m10.505.005c.251.123.463.335.586.586l.097.197v4.2l-.092.172a1.382 1.382 0 0 1-.602.597l-.226.111h-4.082l-.267-.131c-.29-.143-.455-.317-.602-.636-.088-.192-.089-.208-.089-2.233 0-1.99.002-2.044.084-2.222.153-.329.426-.579.771-.703.114-.041.589-.051 2.185-.044l2.04.009.197.097M6.46 6.075c-.498.226-.608.839-.218 1.211.144.137.449.251.574.214.024-.007.093-.024.153-.037.122-.027.37-.229.439-.358a.76.76 0 0 0-.343-1.028.684.684 0 0 0-.605-.002m10.475.002a.76.76 0 0 0-.343 1.028c.069.129.317.331.439.358.06.013.129.03.153.037a.865.865 0 0 0 .232-.027c.526-.112.76-.784.412-1.181-.242-.276-.58-.357-.893-.215M4.416 12.818c-.982.218-1.75.941-2.062 1.942-.094.299-.094.306-.094 2.48 0 1.992.006 2.202.073 2.44a2.83 2.83 0 0 0 1.987 1.987c.238.067.448.073 2.44.073 2.174 0 2.181 0 2.48-.094.899-.28 1.582-.931 1.87-1.781l.11-.325.012-2.165c.013-2.407.006-2.487-.243-3.021-.33-.709-.884-1.2-1.669-1.479-.259-.092-.272-.093-2.46-.102-1.726-.007-2.253.003-2.444.045m10.471.003c-.758.165-1.486.743-1.854 1.473-.263.522-.273.623-.273 2.85 0 1.323.015 2.049.043 2.123.092.245.436.49.688.492.228.002.554-.199.682-.419.033-.057.053-.669.067-2.1l.02-2.02.105-.223c.133-.284.348-.499.632-.632.222-.105.227-.105 1.483-.125 1.069-.017 1.278-.03 1.38-.086a.75.75 0 0 0 .305-.974.61.61 0 0 0-.375-.358c-.202-.085-2.515-.085-2.903-.001m-5.884 1.544c.284.133.499.348.632.632l.105.223v2.04c0 1.999-.002 2.044-.085 2.225-.118.253-.35.5-.592.628l-.203.107-2.045.011c-1.992.011-2.05.01-2.269-.072a1.303 1.303 0 0 1-.668-.62l-.098-.199v-4.2l.09-.169c.195-.364.512-.619.856-.689.096-.019 1.047-.032 2.114-.029l1.94.007.223.105m6.808.913a.765.765 0 0 0-.551.607c-.063.335.19.739.521.83.102.029.642.044 1.499.044 1.219-.001 1.354-.007 1.5-.075.295-.137.46-.381.46-.684a.667.667 0 0 0-.193-.494c-.234-.248-.218-.245-1.727-.253-.759-.004-1.438.007-1.509.025m5 1a.883.883 0 0 0-.481.374c-.061.112-.073.289-.09 1.408-.02 1.254-.022 1.284-.117 1.477-.124.251-.36.487-.597.597-.17.079-.272.088-1.206.107-1.107.022-1.144.029-1.367.265a.716.716 0 0 0 .06 1.043c.234.205.344.22 1.448.2.785-.014 1.05-.032 1.239-.087a2.834 2.834 0 0 0 1.967-1.982c.064-.228.073-.422.073-1.58 0-1.258-.004-1.327-.082-1.459a.807.807 0 0 0-.847-.363m-14.417.323c-.286.151-.426.445-.375.785.023.158.063.228.215.38s.222.192.38.215c.619.093 1.087-.544.796-1.082a.927.927 0 0 0-.383-.336.908.908 0 0 0-.633.038m9.306 1.216c-.24.107-.461.44-.459.692.002.252.247.596.492.688.067.026.473.043 1.02.042.794-.001.927-.01 1.067-.074a.61.61 0 0 0 .358-.375.799.799 0 0 0-.13-.804.83.83 0 0 0-.228-.151c-.141-.064-.271-.073-1.08-.073-.681.001-.951.015-1.04.055" /></svg>